<?xml version="1.0" standalone="no"?>
<!DOCTYPE svg PUBLIC "-//W3C//DTD SVG 20010904//EN"
 "http://www.w3.org/TR/2001/REC-SVG-20010904/DTD/svg10.dtd">
<svg version="1.0" xmlns="http://www.w3.org/2000/svg"
 width="640.000000pt" height="640.000000pt" viewBox="0 0 640.000000 640.000000"
 preserveAspectRatio="xMidYMid meet">

<g transform="translate(0.000000,640.000000) scale(0.100000,-0.100000)"
fill="#000000" stroke="none">
<path d="M1738 6389 c-5 -12 1 -15 23 -15 16 0 29 4 29 9 0 5 -9 7 -20 4 -10
-3 -21 0 -23 6 -2 6 -6 4 -9 -4z"/>
<path d="M1822 6370 c34 -46 61 -100 54 -108 -3 -3 -6 1 -6 9 0 11 -2 11 -10
-1 -5 -8 -7 -22 -5 -31 3 -9 -1 -22 -10 -29 -8 -7 -12 -17 -9 -22 3 -5 -1 -15
-10 -21 -14 -11 -14 -15 -1 -40 10 -20 11 -34 4 -50 l-10 -22 5 23 c3 14 -1
22 -9 22 -7 0 -16 6 -19 13 -3 6 -3 -1 1 -18 7 -34 22 -57 33 -50 4 3 7 -1 6
-8 0 -6 4 -13 9 -15 13 -3 15 40 3 56 -10 11 1 17 25 13 5 -1 6 3 2 9 -3 6
-10 8 -14 5 -13 -8 0 44 14 55 10 9 19 6 33 -8 11 -11 17 -24 14 -28 -4 -4 1
-4 11 -1 10 4 16 3 13 -2 -3 -5 5 -16 19 -25 14 -9 25 -14 25 -11 0 4 11 -7
24 -22 23 -26 25 -26 19 -5 -3 12 -8 22 -12 22 -4 0 -8 12 -9 28 -1 24 0 23
16 -12 9 -21 21 -38 25 -37 17 2 19 0 7 -14 -10 -12 -8 -16 15 -25 15 -6 29
-19 32 -30 3 -11 9 -20 14 -20 5 0 6 8 2 18 -11 30 -34 51 -51 45 -12 -4 -11
-1 3 10 18 14 21 14 27 -4 7 -18 20 -24 42 -20 5 1 6 -4 3 -12 -3 -8 -1 -20 4
-28 7 -11 9 -10 9 5 0 17 2 16 19 -5 10 -13 20 -31 23 -39 3 -11 10 -7 22 15
9 17 14 21 10 10 -4 -11 -7 -28 -8 -37 0 -19 -16 -19 -32 1 -12 15 -66 23 -58
9 3 -5 7 -20 10 -33 5 -26 -5 -32 -23 -14 -6 6 -27 12 -46 14 -19 2 -45 9 -57
15 -16 9 -25 9 -36 -1 -12 -10 -13 -9 -8 5 3 9 1 16 -5 16 -7 0 -16 -10 -21
-22 -9 -23 -14 -11 -11 24 2 12 -4 15 -17 11 -28 -7 -55 33 -41 59 6 11 8 22
6 25 -3 2 -8 -5 -12 -16 -3 -12 -11 -18 -17 -15 -6 4 -8 -1 -4 -14 4 -11 2
-23 -4 -27 -6 -3 -8 -11 -4 -16 3 -5 10 -7 15 -3 5 3 8 2 7 -3 -2 -4 7 -18 20
-31 13 -13 21 -27 17 -30 -3 -4 -9 -2 -13 4 -4 6 -22 16 -40 23 -18 8 -39 23
-47 35 -8 11 -15 15 -15 8 0 -7 -4 -11 -10 -7 -5 3 -7 13 -4 23 5 13 4 14 -4
3 -8 -11 -11 -9 -17 8 -3 11 -11 21 -17 21 -5 0 -8 6 -5 13 3 8 -1 14 -9 14
-10 0 -8 -9 7 -34 16 -26 19 -37 10 -46 -15 -15 -14 -28 2 -24 6 1 11 -6 11
-15 -1 -10 4 -14 12 -11 11 4 10 9 -3 29 -8 13 -11 24 -6 24 11 0 43 -37 43
-49 0 -6 9 -13 20 -16 11 -4 18 -11 14 -16 -3 -6 -12 -5 -22 3 -15 12 -16 11
-3 -4 13 -17 8 -23 -14 -18 -5 1 6 -15 24 -34 33 -34 60 -49 45 -24 -4 7 -3 8
5 4 6 -4 9 -11 7 -15 -5 -7 25 -27 102 -68 21 -11 31 -22 27 -31 -3 -8 0 -21
6 -29 7 -7 9 -16 5 -20 -3 -3 -6 -1 -6 6 0 18 -40 -5 -68 -39 -12 -16 -36 -31
-52 -35 -16 -4 -28 -12 -27 -18 1 -7 -7 -12 -17 -12 -11 0 -32 -12 -49 -27
-16 -16 -35 -28 -43 -28 -16 0 -43 -50 -37 -67 3 -7 -2 -13 -11 -13 -9 0 -16
-5 -16 -10 0 -7 6 -7 20 0 11 6 20 17 20 24 0 17 82 77 143 105 25 11 47 26
49 33 2 6 10 8 16 4 18 -11 14 -27 -5 -24 -10 2 -18 -1 -18 -7 0 -5 -4 -16 -8
-22 -5 -7 -5 -17 -2 -23 3 -6 -1 -7 -9 -4 -9 3 -14 10 -11 15 3 4 -8 3 -25 -2
-16 -6 -30 -16 -30 -22 0 -7 4 -7 12 1 16 16 41 15 36 0 -3 -7 -10 -13 -17
-13 -6 0 -15 -6 -20 -13 -5 -8 -11 -13 -15 -13 -15 3 -66 -31 -61 -39 3 -6 0
-7 -8 -4 -8 3 -18 1 -22 -5 -3 -6 -14 -11 -24 -11 -11 0 -25 -15 -36 -40 -11
-24 -21 -36 -25 -30 -5 8 -12 7 -23 -4 -14 -14 -43 -25 -136 -52 -7 -2 -10
-11 -7 -20 4 -10 -1 -18 -13 -21 -11 -3 -22 -12 -25 -20 -4 -11 -1 -13 14 -8
11 4 20 2 20 -4 0 -6 -7 -11 -15 -11 -8 0 -15 -9 -15 -20 0 -13 7 -20 20 -20
11 0 20 -4 20 -9 0 -9 69 -6 103 5 18 6 18 5 0 -15 -9 -12 -22 -21 -28 -21 -5
0 -3 5 5 10 10 7 11 10 2 10 -7 0 -15 -7 -19 -16 -3 -9 -9 -11 -12 -6 -7 12
-71 3 -71 -10 0 -5 4 -7 8 -4 4 3 8 -7 8 -22 -1 -22 5 -28 39 -38 23 -6 34
-13 25 -16 -8 -3 -3 -3 13 -1 20 4 27 0 27 -12 0 -14 6 -16 28 -11 25 6 26 5
6 -6 -18 -11 -20 -15 -8 -25 7 -7 19 -13 26 -13 10 0 10 2 0 9 -9 5 0 10 29
15 23 4 44 4 47 1 3 -3 -4 -5 -16 -5 -12 0 -21 -4 -19 -9 1 -4 -9 -18 -23 -30
l-25 -21 25 -7 25 -7 -30 -12 c-29 -12 -28 -12 23 -10 29 1 55 -1 58 -6 3 -4
14 -8 25 -8 10 0 19 -5 19 -11 0 -5 -4 -7 -10 -4 -13 8 -13 -8 0 -21 6 -6 -3
-9 -25 -10 -20 0 -32 3 -28 9 3 6 2 7 -3 4 -6 -3 -16 -2 -24 4 -12 7 -11 9 5
9 17 1 16 3 -5 11 -17 7 -26 7 -28 0 -2 -6 -11 -11 -20 -11 -14 0 -15 -2 -2
-9 8 -6 17 -8 21 -5 4 2 9 -6 12 -17 4 -15 11 -20 25 -17 14 4 19 1 18 -11 0
-9 -5 -19 -10 -23 -5 -3 3 -5 18 -5 23 2 24 3 9 14 -9 7 -14 15 -11 19 4 3 16
-4 28 -16 12 -12 24 -19 28 -16 3 4 -3 13 -14 21 -21 16 -21 16 19 21 15 1 27
-1 27 -5 0 -5 -12 -23 -27 -42 -26 -31 -32 -34 -78 -31 -30 2 -55 9 -62 18 -7
10 -13 12 -18 5 -3 -6 -1 -11 4 -11 6 0 11 -6 11 -14 0 -9 8 -12 25 -9 23 5
57 -16 54 -34 -5 -31 10 -21 44 27 l18 25 -3 -35 c-2 -26 -10 -38 -29 -47 -32
-15 -79 -59 -79 -73 0 -15 16 -12 34 6 20 19 20 6 1 -20 -23 -30 -19 -56 6
-51 22 4 22 4 3 -18 -21 -24 -23 -60 -9 -162 8 -53 10 -56 16 -30 l7 30 2 -35
c1 -29 3 -32 10 -15 7 16 9 12 11 -20 1 -22 3 -48 2 -57 0 -10 8 -18 16 -18
10 0 12 -3 5 -8 -6 -4 -9 -16 -7 -27 2 -11 7 -48 10 -82 3 -37 10 -63 17 -63
7 0 12 -20 14 -47 2 -62 19 -103 39 -96 10 4 13 15 11 33 -3 21 0 27 11 25 11
-1 16 -14 18 -38 0 -21 -3 -35 -8 -32 -9 6 0 -115 10 -130 4 -5 16 -37 26 -70
10 -33 27 -78 37 -100 23 -48 73 -128 63 -100 -16 43 -26 148 -16 158 12 12
15 74 4 79 -11 4 -43 101 -43 129 0 17 -3 20 -9 11 -11 -19 -23 72 -16 129 3
24 1 67 -4 94 -6 37 -9 42 -10 20 -1 -16 -6 -37 -12 -45 -8 -12 -9 -11 -5 5 3
11 8 60 11 110 8 105 15 123 16 39 1 -41 3 -52 8 -34 l7 25 6 -27 c3 -16 1
-28 -3 -28 -13 0 -11 -78 2 -86 6 -3 9 -15 6 -25 -3 -10 0 -20 6 -22 7 -2 10
-36 9 -94 -2 -75 1 -92 14 -97 12 -5 14 -13 9 -34 -4 -15 -3 -23 1 -19 5 5 10
25 11 45 1 20 7 74 13 120 5 46 11 102 14 125 14 140 19 182 37 277 21 115 41
269 40 313 0 15 5 40 11 55 6 15 11 36 12 47 1 17 -4 20 -29 18 l-30 -3 31 10
c27 9 33 18 48 70 9 33 21 60 27 60 5 0 9 29 9 64 0 56 3 64 20 69 11 3 20 9
19 14 -4 24 2 53 11 48 6 -3 10 3 10 14 0 12 4 21 8 21 12 0 44 76 40 97 -2
10 2 17 10 16 8 -2 12 10 12 35 0 21 5 43 12 50 8 8 8 15 -1 26 -7 8 -10 19
-7 25 4 5 -1 17 -10 25 -8 9 -11 16 -5 16 5 0 13 -4 16 -10 3 -5 11 -10 16
-10 6 0 0 13 -13 29 -13 15 -27 26 -32 23 -5 -3 -6 0 -2 7 6 8 15 5 31 -14 13
-14 29 -25 34 -25 10 0 -15 53 -42 90 -7 10 -4 9 8 -2 17 -16 19 -16 32 0 12
16 13 15 6 -2 -4 -13 -3 -17 5 -12 6 4 11 31 11 62 -1 60 10 90 12 33 1 -19 1
-41 0 -49 -1 -12 1 -12 9 2 10 17 22 102 24 170 1 21 7 40 14 43 7 3 11 1 8
-4 -12 -19 -17 -211 -5 -211 6 0 3 -7 -5 -15 -11 -11 -13 -21 -7 -33 5 -9 13
-26 17 -37 7 -19 7 -19 11 -2 4 15 8 12 22 -14 10 -18 25 -33 33 -35 13 -2 14
4 6 34 -6 20 -19 44 -29 53 -26 22 -24 29 9 29 21 0 24 2 12 10 -13 8 -12 10
3 10 20 0 20 -2 5 41 -6 18 -20 41 -30 49 -16 12 -17 19 -8 40 l10 25 -3 -27
c-3 -17 1 -29 10 -32 8 -3 11 -1 8 4 -3 6 -1 10 4 10 6 0 11 -13 11 -30 0 -35
6 -37 34 -13 17 14 16 12 -2 -9 -19 -21 -22 -30 -13 -45 6 -10 11 -12 11 -5 0
6 5 12 10 12 7 0 7 -7 0 -20 -6 -11 -16 -17 -22 -14 -6 4 -8 3 -4 -4 3 -6 -3
-13 -14 -17 -17 -6 -18 -8 -6 -21 19 -19 27 -18 20 4 -3 9 1 6 9 -8 9 -14 13
-28 11 -32 -3 -4 2 -5 10 -2 9 3 13 10 10 16 -3 5 2 16 12 23 11 8 15 15 11
15 -5 0 -2 7 7 15 8 8 21 15 28 15 9 -1 7 -5 -5 -14 -14 -11 -16 -19 -7 -40
12 -31 10 -31 56 -5 30 16 42 18 58 10 20 -11 20 -11 -2 -5 -15 4 -32 -2 -53
-20 -17 -14 -41 -29 -55 -32 -13 -3 -21 -11 -18 -18 3 -6 -1 -3 -10 8 -8 10
-20 15 -26 11 -12 -8 -4 -42 15 -65 11 -12 11 -18 -1 -34 -7 -11 -17 -16 -21
-13 -4 4 -1 13 5 19 7 7 12 16 12 22 0 5 -7 1 -16 -10 -8 -10 -13 -14 -10 -7
4 6 2 14 -4 18 -16 10 -11 -31 5 -45 12 -10 19 -10 27 -2 19 19 30 14 18 -8
-7 -14 -7 -20 0 -20 5 0 10 5 10 10 0 16 30 11 37 -6 5 -13 7 -13 14 -2 7 10
9 10 9 1 0 -8 14 -14 33 -14 25 -1 21 -3 -21 -11 -29 -5 -50 -13 -47 -18 3 -5
-1 -10 -7 -13 -9 -3 -7 -9 7 -20 18 -14 20 -14 23 4 2 10 12 23 22 29 14 8 19
5 25 -13 4 -12 6 -32 5 -44 -1 -13 7 -27 19 -35 22 -13 29 -38 11 -38 -5 0
-10 5 -10 12 0 6 -3 8 -6 5 -12 -11 19 -39 38 -34 12 3 18 0 18 -11 0 -8 3
-13 6 -9 3 3 22 -10 42 -29 19 -19 40 -34 46 -34 6 -1 0 -7 -14 -15 -21 -12
-22 -14 -6 -15 12 0 16 -5 12 -15 -3 -8 -2 -15 3 -15 5 0 12 11 15 25 4 14 11
25 17 25 11 0 8 -25 -8 -67 -6 -16 -5 -16 10 -4 24 19 34 5 14 -17 -10 -10
-14 -21 -11 -25 10 -10 44 17 44 35 0 9 4 19 9 23 6 3 6 -7 0 -27 -12 -42 -11
-57 1 -38 8 11 10 0 9 -40 -2 -30 -7 -58 -13 -62 -14 -10 0 -22 18 -15 10 4
13 17 9 51 -3 29 0 46 6 46 11 0 15 -13 12 -37 -3 -19 37 -11 42 9 6 20 27 25
27 5 0 -7 -7 -22 -15 -34 -9 -12 -14 -28 -13 -35 2 -9 -6 -12 -26 -10 -16 2
-32 -2 -36 -9 -5 -7 -18 -9 -35 -5 -21 5 -26 12 -22 26 6 24 3 25 -28 4 -31
-20 -32 -34 -2 -27 21 5 21 5 3 -9 -10 -8 -16 -19 -13 -25 10 -16 -27 -39 -68
-41 -22 -1 -62 -4 -90 -6 -27 -2 -66 -4 -85 -5 -24 -1 -31 -4 -21 -10 8 -5 27
-5 45 0 38 11 39 11 31 -1 -3 -5 -17 -10 -31 -10 -13 0 -24 -4 -24 -8 0 -5
-14 -6 -31 -4 -22 3 -27 7 -18 13 11 7 11 9 -1 9 -9 0 -26 -7 -39 -16 -15 -11
-25 -13 -30 -6 -4 6 -28 -1 -66 -19 -70 -34 -72 -34 -54 -12 13 15 12 15 -10
4 -19 -10 -21 -15 -10 -22 12 -7 11 -9 -1 -10 -30 -3 -35 -4 -35 -10 0 -4 -9
-17 -20 -29 l-20 -23 23 12 c12 6 22 8 22 2 0 -5 -7 -12 -16 -15 -10 -4 -14
-12 -10 -22 6 -15 4 -15 -10 -3 -15 12 -17 12 -12 -1 2 -8 20 -18 39 -21 29
-6 30 -7 7 -8 -15 0 -29 -5 -32 -9 -2 -4 12 -7 32 -6 20 2 27 0 14 -2 -12 -3
-20 -9 -17 -14 3 -5 12 -7 20 -3 8 3 15 0 15 -5 0 -6 10 -12 23 -14 13 -2 21
-10 19 -18 -2 -11 1 -10 12 3 12 16 14 16 20 1 11 -29 6 -71 -9 -84 -12 -10
-13 -15 -4 -21 8 -5 1 -13 -22 -23 -45 -20 -70 -43 -96 -88 -28 -49 -6 -53 34
-7 25 27 72 59 88 59 3 0 -4 -10 -15 -22 -12 -13 -25 -23 -29 -23 -9 0 -41
-31 -41 -41 0 -4 8 -12 17 -19 15 -11 15 -15 3 -31 -8 -11 0 -6 18 10 27 25
32 27 32 12 0 -15 3 -16 14 -7 8 6 28 13 45 16 37 4 61 -26 40 -51 -7 -8 -14
-25 -15 -37 -4 -37 -9 -52 -19 -59 -5 -4 14 -8 43 -8 32 0 51 -4 50 -11 -6
-22 181 -19 282 5 65 15 238 176 270 251 11 26 22 67 25 90 2 29 16 60 41 94
20 29 39 49 42 47 3 -3 11 -1 18 5 18 15 55 -6 47 -27 -5 -13 -2 -15 16 -9 13
4 26 1 34 -7 23 -25 59 -80 61 -92 1 -7 9 -25 19 -39 9 -15 17 -31 17 -37 0
-5 4 -10 8 -10 16 0 83 -71 77 -81 -4 -5 1 -9 9 -9 9 0 16 -7 16 -15 0 -8 6
-12 14 -9 13 5 30 -11 31 -28 0 -16 48 -59 60 -54 8 3 17 1 20 -4 4 -6 1 -10
-4 -10 -23 0 -10 -15 14 -17 48 -4 55 -6 55 -20 0 -16 16 -17 25 -2 5 7 14 3
27 -11 14 -15 23 -18 28 -10 4 6 15 11 26 10 62 -2 84 -6 95 -17 6 -6 18 -9
25 -6 9 3 14 -2 14 -12 0 -11 -5 -15 -15 -12 -8 4 -17 2 -20 -3 -7 -11 28 -14
38 -4 4 4 25 7 47 8 28 1 42 -4 45 -14 5 -16 65 -19 99 -5 13 6 21 3 28 -9 5
-9 14 -14 19 -11 5 4 7 11 4 16 -3 5 1 6 10 3 11 -4 14 -2 9 9 -4 11 4 18 28
25 36 11 155 24 203 23 20 -1 26 2 17 8 -10 6 -7 10 13 15 14 4 31 4 37 0 6
-4 8 -3 4 4 -3 6 -2 13 4 17 5 3 10 19 10 35 0 15 6 30 13 33 9 3 9 7 1 18 -6
8 -14 26 -16 42 -4 22 -2 27 14 27 15 0 18 4 13 18 -17 41 -18 55 -4 50 10 -4
15 1 15 13 0 14 -5 17 -23 13 -18 -5 -22 -3 -17 10 3 9 10 16 15 16 5 0 9 7 9
16 0 8 -4 12 -10 9 -6 -3 -10 -1 -10 4 0 6 19 11 43 11 24 0 48 5 54 11 6 6
21 9 34 7 21 -3 25 -13 41 -88 30 -146 49 -288 50 -383 1 -51 4 -96 6 -101 7
-12 6 -87 -3 -177 -7 -72 -6 -76 14 -82 12 -3 19 -2 17 2 -3 4 1 18 8 32 30
59 50 139 52 209 2 95 5 106 14 51 7 -46 -12 -224 -30 -275 -7 -21 -7 -27 0
-20 6 6 16 39 24 75 8 35 21 78 30 94 9 17 16 36 16 43 0 7 9 31 19 55 31 68
32 76 41 202 5 66 12 128 15 137 7 17 35 14 35 -4 0 -6 -7 -7 -16 -4 -9 3 -12
2 -9 -5 4 -6 14 -8 22 -5 8 3 24 1 36 -5 l22 -12 -22 25 c-13 13 -23 30 -23
36 0 7 -4 12 -10 12 -5 0 -10 5 -10 11 0 6 9 8 22 4 16 -6 20 -4 15 7 -3 8 -1
21 3 28 5 7 4 23 0 36 -7 17 -4 26 13 41 21 18 21 18 7 -2 -15 -19 -15 -19 11
0 15 11 26 22 24 25 -2 3 11 6 27 7 17 1 39 10 50 20 10 9 25 18 32 19 38 6
216 162 216 190 0 7 6 17 13 21 16 9 47 55 52 75 7 35 39 97 46 92 5 -3 13 5
18 18 9 21 10 21 11 3 2 -38 25 26 35 99 6 46 7 47 23 37 6 -4 15 -29 18 -57
4 -27 12 -52 18 -56 8 -5 7 -8 -1 -8 -7 0 -13 -9 -13 -20 0 -11 7 -20 15 -20
9 0 12 -6 9 -15 -4 -8 -9 -13 -13 -10 -4 2 -8 -2 -8 -10 0 -8 4 -12 9 -9 14 9
9 -13 -7 -26 -18 -15 -20 -34 -3 -24 7 5 9 2 6 -7 -21 -50 -21 -52 -10 -45 7
4 12 2 12 -4 0 -7 -8 -9 -20 -5 -14 4 -20 2 -20 -8 0 -20 -68 -121 -89 -132
-45 -26 -81 -51 -81 -57 0 -14 17 -8 41 15 14 12 32 21 42 19 9 -2 17 2 17 8
0 6 12 22 28 36 15 14 27 29 27 32 1 18 27 52 40 52 15 0 20 16 16 58 -1 13 4
22 13 22 8 0 16 3 19 8 2 4 2 1 1 -5 -2 -7 0 -13 5 -13 5 0 11 11 13 25 3 14
1 25 -3 25 -5 0 -9 7 -9 16 0 10 6 14 15 10 11 -4 15 1 15 19 0 13 5 27 10 30
6 3 10 14 10 23 0 15 -2 15 -11 2 -8 -11 -9 -4 -6 27 3 24 1 46 -4 49 -9 5 -6
22 9 63 3 8 1 12 -4 8 -6 -4 -9 7 -7 26 3 26 1 28 -6 12 -8 -18 -10 -16 -10
10 -1 23 -4 27 -11 15 -7 -11 -10 -8 -10 16 0 29 25 66 52 77 11 5 10 7 0 15
-8 5 -15 21 -15 36 -1 14 -8 28 -14 31 -7 2 -13 14 -13 25 0 12 -4 18 -10 15
-12 -7 -12 15 -1 70 8 36 9 37 10 10 l1 -30 15 29 c9 16 13 37 10 45 -3 10 1
9 11 -4 16 -20 16 -20 11 3 -4 16 -1 22 11 22 8 0 12 3 9 7 -4 3 -1 13 6 21 8
11 8 14 0 9 -6 -4 -14 -3 -18 3 -3 5 0 10 8 10 10 0 13 7 10 21 -4 12 -11 18
-20 15 -8 -3 -20 -6 -26 -7 -7 -1 -1 -5 13 -9 20 -6 21 -8 5 -8 -11 0 -29 3
-40 8 -18 7 -18 8 8 15 26 7 32 19 29 58 -2 18 -1 18 15 1 13 -12 14 -19 5
-22 -6 -2 -12 -8 -12 -13 0 -5 9 -4 19 3 11 7 18 15 15 19 -2 4 3 15 12 24 13
13 14 16 3 15 -35 -5 -39 1 -39 51 0 37 3 48 13 43 6 -5 0 8 -15 28 -32 43
-33 45 -13 45 9 0 19 -14 23 -31 5 -17 11 -26 14 -20 11 17 -16 57 -41 61 -19
3 -22 0 -18 -17 3 -11 1 -22 -4 -25 -4 -3 -5 -13 -2 -23 5 -14 3 -15 -7 -5
-11 10 -11 15 0 28 8 10 9 15 1 15 -6 0 -11 7 -11 15 0 20 -35 76 -43 70 -4
-3 -3 0 2 6 5 6 7 19 3 27 -4 11 2 9 18 -6 13 -12 27 -22 32 -22 4 0 8 -5 8
-11 0 -5 -6 -7 -12 -3 -7 4 -4 -2 6 -14 24 -28 36 -28 36 1 l0 22 13 -24 c6
-13 27 -35 45 -49 l33 -25 -6 34 c-4 23 -2 29 4 19 5 -8 7 -19 5 -25 -3 -5 1
-2 9 8 8 9 26 17 40 17 24 0 42 23 31 41 -3 5 1 9 9 9 8 0 18 7 21 16 10 27 7
29 -14 6 -12 -12 -25 -22 -30 -22 -5 0 -7 -7 -3 -16 4 -12 -2 -9 -21 7 -15 13
-29 22 -31 19 -1 -3 -12 3 -23 13 -17 16 -19 23 -10 43 8 18 14 21 20 12 6
-10 8 -10 8 -1 0 7 -22 24 -50 38 -27 14 -50 27 -50 29 0 9 65 -14 68 -24 2
-6 11 -10 21 -10 18 0 26 36 10 46 -5 3 -9 2 -8 -3 4 -21 -2 -34 -12 -27 -6 3
-9 15 -6 25 5 19 -8 28 -15 10 -2 -5 -13 -5 -26 0 -17 7 -21 14 -17 31 5 17
-2 31 -25 53 -16 16 -30 34 -30 41 0 7 -4 15 -9 18 -18 12 3 -44 25 -65 13
-12 24 -30 23 -38 0 -12 -2 -13 -6 -2 -8 21 -36 51 -47 51 -5 0 1 -11 13 -24
14 -14 18 -26 12 -30 -14 -9 -45 40 -37 60 4 9 -1 28 -10 42 -9 13 -11 21 -5
18 6 -4 11 -1 11 8 0 8 -4 18 -10 21 -5 3 -10 1 -10 -6 0 -7 -3 -10 -6 -6 -6
6 -11 48 -16 149 -2 25 -7 44 -12 41 -4 -3 -6 -21 -3 -39 4 -21 2 -34 -5 -34
-6 0 -5 -7 3 -17 10 -11 10 -14 2 -9 -7 4 -13 2 -13 -3 0 -6 4 -11 9 -11 12 0
25 -39 17 -47 -3 -4 -17 6 -31 21 -14 15 -25 23 -25 18 0 -5 9 -17 20 -27 24
-22 26 -40 3 -31 -9 4 -21 1 -26 -6 -6 -9 -7 -8 -3 4 7 24 -22 73 -56 93 -16
9 -27 24 -26 33 2 9 -1 17 -7 17 -5 0 -26 18 -45 39 -19 21 -45 49 -58 63 -12
13 -20 28 -17 33 3 4 -7 7 -22 5 -15 -1 -29 -8 -31 -14 -2 -7 -9 -8 -21 -1
-10 5 -20 7 -23 5 -3 -3 -5 2 -5 10 0 8 4 15 9 15 4 0 8 8 8 18 0 15 -2 15
-11 2 -9 -13 -10 -12 -5 2 3 10 1 20 -4 23 -6 4 -10 1 -10 -4 0 -22 -18 -10
-30 19 -14 34 -10 32 -72 35 -52 1 -57 -1 -31 -20 14 -11 8 -11 -35 -3 -28 6
-49 14 -46 19 3 5 -526 9 -1220 9 -674 0 -1226 -2 -1226 -5 0 -3 7 -18 16 -33
l16 -27 -21 25 c-11 14 -21 28 -21 31 0 4 -54 8 -120 8 -111 2 -119 1 -114
-16 5 -15 3 -15 -7 2 -12 19 -12 19 -19 0 -4 -11 -1 -32 6 -47 16 -32 17 -38
5 -38 -5 0 -18 23 -30 50 l-22 51 -64 -2 c-63 -2 -65 -3 -66 -28 0 -23 -1 -24
-9 -6 -6 14 -9 -5 -11 -60 -1 -44 -4 -63 -6 -42 -2 20 -8 35 -14 32 -5 -4 -9
-1 -9 4 0 6 4 11 9 11 4 0 8 20 8 45 0 29 -4 44 -11 42 -6 -3 -10 -10 -8 -16
1 -6 -2 -11 -8 -11 -5 0 -10 7 -10 15 0 9 -9 15 -21 15 -15 0 -19 -4 -15 -16
8 -21 -4 -41 -14 -24 -6 9 -12 10 -26 1 -11 -6 -16 -11 -11 -12 4 -1 12 -3 17
-4 6 -1 16 -3 23 -4 7 -1 4 -6 -7 -12 -14 -9 -22 -8 -32 3 -15 15 -9 52 7 42
5 -3 9 0 9 6 0 6 5 8 12 4 6 -4 8 -3 5 3 -4 6 -18 11 -31 11 -18 0 -23 -5 -19
-17 3 -12 1 -11 -11 3 -12 15 -16 16 -16 5 0 -8 5 -20 12 -27 7 -7 8 -12 4
-12 -5 0 -3 -7 4 -16 12 -13 10 -14 -14 -3 -23 11 -27 18 -24 41 3 15 1 28 -4
28 -4 0 -8 -7 -8 -16 0 -9 -5 -12 -11 -8 -9 5 -10 -1 -5 -20 3 -14 9 -37 12
-51 3 -14 2 -25 -4 -25 -5 0 -13 16 -16 35 -4 19 -11 35 -16 35 -14 0 -12 -13
10 -71 12 -28 19 -54 16 -56 -2 -2 -13 19 -24 48 -11 29 -25 55 -32 57 -8 3
-10 0 -6 -9 4 -8 -1 -4 -12 8 -11 13 -19 31 -18 40 2 10 1 12 -1 5 -4 -10 -12
-8 -31 10 l-25 23 25 -35z m493 10 c3 -5 1 -10 -4 -10 -6 0 -11 5 -11 10 0 6
2 10 4 10 3 0 8 -4 11 -10z m2900 -8 c-11 -3 -23 -9 -27 -16 -6 -8 -8 -8 -8 1
0 16 32 33 45 25 5 -4 1 -8 -10 -10z m-2788 2 c-3 -3 -12 -4 -19 -1 -8 3 -5 6
6 6 11 1 17 -2 13 -5z m-93 -53 c-6 -6 -24 19 -24 34 1 6 7 1 15 -9 8 -11 12
-22 9 -25z m195 -6 c0 -5 -4 -3 -9 5 -5 8 -9 22 -9 30 0 16 17 -16 18 -35z
m2751 -15 c-7 -4 -17 -14 -22 -21 -7 -10 -8 -8 -5 8 3 12 -1 27 -9 34 -28 23
-13 30 17 8 21 -15 27 -24 19 -29z m-3160 4 c5 -12 2 -24 -8 -34 -14 -13 -15
-13 -10 1 7 18 -27 43 -44 33 -7 -5 -8 -3 -4 5 5 7 14 10 22 7 8 -3 14 -1 14
5 0 17 22 5 30 -17z m427 -11 c-3 -10 -5 -4 -5 12 0 17 2 24 5 18 2 -7 2 -21
0 -30z m2453 17 c0 -5 -5 -10 -11 -10 -5 0 -7 5 -4 10 3 6 8 10 11 10 2 0 4
-4 4 -10z m-3023 -22 c-3 -8 -6 -5 -6 6 -1 11 2 17 5 13 3 -3 4 -12 1 -19z
m20 -20 c-3 -7 -5 -2 -5 12 0 14 2 19 5 13 2 -7 2 -19 0 -25z m1027 -17 c36
-36 44 -51 34 -56 -7 -5 -10 -4 -5 0 4 5 -14 30 -40 57 -26 26 -45 48 -42 48
3 0 26 -22 53 -49z m2145 19 c-7 -5 -22 -4 -32 2 -15 8 -17 12 -6 18 7 5 22 4
32 -2 15 -8 17 -12 6 -18z m-99 16 c0 -3 -4 -8 -10 -11 -5 -3 -10 -1 -10 4 0
6 5 11 10 11 6 0 10 -2 10 -4z m-130 -16 c0 -5 -7 -10 -15 -10 -8 0 -15 5 -15
10 0 6 7 10 15 10 8 0 15 -4 15 -10z m160 0 c0 -5 -4 -10 -10 -10 -5 0 -10 5
-10 10 0 6 5 10 10 10 6 0 10 -4 10 -10z m-3190 -24 c0 -3 -4 -8 -10 -11 -5
-3 -10 -1 -10 4 0 6 5 11 10 11 6 0 10 -2 10 -4z m3455 -6 c3 -5 1 -10 -4 -10
-6 0 -11 5 -11 10 0 6 2 10 4 10 3 0 8 -4 11 -10z m50 0 c3 -6 -1 -7 -9 -4
-18 7 -21 14 -7 14 6 0 13 -4 16 -10z m-3298 -57 c-3 -10 -5 -2 -5 17 0 19 2
27 5 18 2 -10 2 -26 0 -35z m603 12 c0 -5 -5 -3 -10 5 -5 8 -10 20 -10 25 0 6
5 3 10 -5 5 -8 10 -19 10 -25z m2688 -1 c-4 -3 -12 5 -18 18 -12 22 -12 22 6
6 10 -10 15 -20 12 -24z m-320 10 c6 3 13 2 17 -4 3 -5 17 -10 31 -10 13 0 24
-4 24 -10 0 -12 0 -12 -36 -1 -16 5 -42 12 -58 16 -23 5 -26 9 -16 15 9 6 17
5 21 -2 4 -6 11 -8 17 -4z m-3138 -31 c0 -35 -1 -36 -15 -17 -8 10 -14 24 -15
29 0 6 5 3 10 -5 8 -12 10 -11 10 8 0 12 2 22 5 22 3 0 5 -17 5 -37z m3364 28
c3 -4 -6 -6 -19 -3 -14 2 -25 6 -25 8 0 8 39 4 44 -5z m144 -19 c20 -30 11
-28 -19 4 -13 15 -18 25 -10 22 8 -2 21 -14 29 -26z m-3578 8 c0 -5 -2 -10 -4
-10 -3 0 -8 5 -11 10 -3 6 -1 10 4 10 6 0 11 -4 11 -10z m130 -5 c0 -8 -2 -15
-4 -15 -2 0 -6 7 -10 15 -3 8 -1 15 4 15 6 0 10 -7 10 -15z m150 8 c-1 -5 -15
-24 -32 -43 -32 -36 -29 -25 6 23 20 28 26 32 26 20z m2853 0 c-7 -2 -19 -2
-25 0 -7 3 -2 5 12 5 14 0 19 -2 13 -5z m-3153 -32 c0 -5 -6 -14 -14 -20 -12
-10 -13 -8 -9 8 5 21 23 30 23 12z m3194 -6 c-5 -12 2 -15 27 -14 28 0 31 2
14 9 -19 8 -19 9 3 9 12 1 22 -4 22 -9 0 -14 46 -31 91 -35 19 -1 54 -14 78
-29 23 -15 52 -32 65 -37 12 -6 27 -19 34 -29 11 -17 9 -18 -18 -8 -17 5 -30
14 -30 20 0 6 -7 8 -15 4 -10 -3 -15 1 -15 12 0 14 -2 14 -9 3 -8 -12 -14 -12
-42 -1 -18 8 -27 16 -21 18 21 7 -10 28 -50 35 -29 4 -40 2 -48 -11 -5 -9 -10
-12 -10 -6 0 5 5 15 11 21 7 7 -3 12 -35 17 -25 4 -50 4 -56 1 -5 -3 -10 1
-10 9 0 9 -8 16 -17 17 -15 0 -15 2 2 9 29 13 35 12 29 -5z m161 5 c7 -12 -2
-12 -30 0 -19 8 -19 9 2 9 12 1 25 -3 28 -9z m175 -31 c0 -12 -32 4 -49 25
-12 14 -10 14 18 0 17 -9 31 -20 31 -25z m-3385 13 c-3 -3 -11 0 -18 7 -9 10
-8 11 6 5 10 -3 15 -9 12 -12z m529 -12 c-6 -6 -10 -3 -10 10 0 13 4 16 10 10
7 -7 7 -13 0 -20z m-560 4 c3 -8 2 -12 -4 -9 -6 3 -10 10 -10 16 0 14 7 11 14
-7z m3183 10 c-3 -3 -12 -4 -19 -1 -8 3 -5 6 6 6 11 1 17 -2 13 -5z m-3081
-45 c3 -6 -5 -3 -20 6 -14 10 -26 19 -26 22 0 7 39 -17 46 -28z m2984 14 c30
7 61 -7 38 -16 -19 -7 -148 4 -148 13 0 15 13 18 47 8 20 -5 48 -7 63 -5z
m-3070 -13 c0 -5 -2 -10 -4 -10 -3 0 -8 5 -11 10 -3 6 -1 10 4 10 6 0 11 -4
11 -10z m3470 -36 c0 -3 -7 -1 -15 6 -8 7 -15 17 -15 22 0 5 7 3 15 -6 8 -8
15 -18 15 -22z m-2935 -4 c3 -5 1 -10 -4 -10 -6 0 -11 5 -11 10 0 6 2 10 4 10
3 0 8 -4 11 -10z m2585 -1 c0 -4 -11 -6 -24 -5 -13 0 -22 4 -20 8 6 9 44 6 44
-3z m70 -9 c0 -5 -5 -10 -11 -10 -5 0 -7 5 -4 10 3 6 8 10 11 10 2 0 4 -4 4
-10z m-305 -10 c-3 -5 -11 -10 -16 -10 -6 0 -7 5 -4 10 3 6 11 10 16 10 6 0 7
-4 4 -10z m92 -11 c-14 -8 -22 -8 -30 0 -8 8 -3 11 19 11 25 -1 27 -2 11 -11z
m253 1 c0 -5 -2 -10 -4 -10 -3 0 -8 5 -11 10 -3 6 -1 10 4 10 6 0 11 -4 11
-10z m-2709 -47 c-6 -11 -11 -13 -11 -5 0 7 -5 10 -10 7 -6 -4 -5 5 2 20 10
21 13 23 20 10 5 -9 5 -22 -1 -32z m-307 21 c3 -8 2 -12 -4 -9 -6 3 -10 10
-10 16 0 14 7 11 14 -7z m2803 10 c-3 -3 -12 -4 -19 -1 -8 3 -5 6 6 6 11 1 17
-2 13 -5z m228 -14 c13 -6 15 -9 5 -9 -8 0 -22 4 -30 9 -18 12 -2 12 25 0z
m-1355 -3 c0 -2 -10 -12 -22 -23 l-23 -19 19 23 c18 21 26 27 26 19z m1511
-14 c16 -10 29 -21 29 -25 0 -13 -11 -9 -42 17 -34 29 -29 32 13 8z m-264 -14
c-9 -6 -15 -14 -12 -20 7 -11 -10 -10 -45 1 l-25 8 27 1 c15 1 30 6 33 11 3 6
14 10 23 10 15 -1 15 -2 -1 -11z m209 -4 c24 -18 19 -18 -31 0 -33 12 -36 14
-14 15 14 0 34 -7 45 -15z m-2856 -47 c-12 -18 -19 -25 -16 -15 4 11 0 17 -11
17 -20 0 -9 13 15 16 9 2 18 8 20 14 2 6 6 9 9 6 3 -3 -4 -20 -17 -38z m2970
32 c0 -5 -2 -10 -4 -10 -3 0 -8 5 -11 10 -3 6 -1 10 4 10 6 0 11 -4 11 -10z
m-192 -16 c44 -13 52 -18 38 -26 -11 -6 -32 -4 -66 7 -27 9 -55 15 -62 14 -7
-1 -20 -1 -28 0 -13 1 -13 2 0 11 22 14 54 12 118 -6z m226 -26 c-3 -5 -12 -4
-20 3 -7 6 -11 15 -8 21 3 5 12 4 20 -3 7 -6 11 -15 8 -21z m-3054 7 c0 -1
-12 -12 -27 -26 -20 -17 -23 -18 -10 -3 9 11 15 23 12 26 -3 2 2 5 10 5 8 0
15 -1 15 -2z m-245 -21 c6 0 19 -2 30 -2 16 -2 17 -4 6 -14 -10 -10 -15 -10
-18 -2 -2 7 -12 10 -22 7 -11 -3 -21 2 -25 12 -4 11 -2 14 7 8 6 -4 17 -8 22
-9z m3239 0 c3 -8 2 -12 -4 -9 -6 3 -10 10 -10 16 0 14 7 11 14 -7z m-2883
-37 l-24 -22 19 27 c10 14 21 24 23 22 3 -3 -6 -15 -18 -27z m2764 23 c3 -6
-1 -7 -9 -4 -18 7 -21 14 -7 14 6 0 13 -4 16 -10z m59 -5 c8 -8 19 -15 25 -15
6 0 11 -4 11 -10 0 -13 -4 -13 -46 5 -20 8 -33 19 -29 25 9 14 21 13 39 -5z
m-3404 1 c0 -3 -4 -8 -10 -11 -5 -3 -10 -1 -10 4 0 6 5 11 10 11 6 0 10 -2 10
-4z m474 -21 c-9 -14 -20 -22 -25 -19 -5 3 -9 1 -9 -5 0 -6 -10 -16 -22 -22
l-23 -11 23 21 c12 12 20 26 17 31 -4 6 20 20 53 29 1 1 -5 -10 -14 -24z
m-564 -10 c7 -8 8 -15 2 -15 -5 0 -15 7 -22 15 -7 8 -8 15 -2 15 5 0 15 -7 22
-15z m-30 -10 c10 -12 10 -15 -4 -15 -9 0 -16 7 -16 15 0 8 2 15 4 15 2 0 9
-7 16 -15z m230 2 c0 -2 -12 -14 -27 -28 l-28 -24 24 28 c23 25 31 32 31 24z
m680 -52 c16 -19 21 -53 8 -61 -4 -3 -8 7 -8 21 0 15 -11 36 -26 50 -25 23
-28 24 -40 8 -7 -10 -10 -22 -7 -27 4 -5 1 -6 -5 -2 -7 4 -20 -7 -33 -28 -12
-20 -23 -36 -25 -36 -9 0 3 37 19 60 9 13 17 30 17 37 0 7 4 13 10 13 5 0 6
-7 3 -17 -4 -11 -3 -14 5 -9 7 4 12 16 12 27 l0 20 28 -20 c16 -11 35 -27 42
-36z m3030 14 c0 -6 -4 -7 -10 -4 -5 3 -10 11 -10 16 0 6 5 7 10 4 6 -3 10
-11 10 -16z m-235 -9 c3 -5 1 -10 -4 -10 -6 0 -11 5 -11 10 0 6 2 10 4 10 3 0
8 -4 11 -10z m138 -20 c4 -17 3 -19 -9 -9 -8 6 -14 18 -14 26 0 20 16 8 23
-17z m159 -17 c17 -15 14 -43 -4 -43 -6 0 -8 7 -5 15 4 8 1 17 -5 21 -6 4 -8
3 -4 -4 3 -6 2 -13 -2 -16 -7 -4 -32 34 -32 49 0 8 34 -7 52 -22z m-3055 10
c-4 -3 1 -15 10 -26 17 -19 17 -20 -4 -8 -13 6 -23 15 -23 20 0 9 11 21 18 21
3 0 2 -3 -1 -7z m-795 -35 c-7 -7 -12 -8 -12 -2 0 14 12 26 19 19 2 -3 -1 -11
-7 -17z m3738 -9 c0 -18 -18 -9 -23 12 -4 16 -3 18 9 8 8 -6 14 -15 14 -20z
m-3350 -26 c0 -27 -4 -43 -8 -36 -8 12 -4 83 4 83 2 0 4 -21 4 -47z m63 32
c-3 -9 -8 -14 -10 -11 -3 3 -2 9 2 15 9 16 15 13 8 -4z m157 7 c0 -4 -9 -13
-21 -20 -19 -12 -19 -11 -9 8 10 19 30 28 30 12z m-55 -12 c8 -13 -5 -13 -25
0 -13 8 -13 10 2 10 9 0 20 -4 23 -10z m-255 -9 c0 -5 -9 -7 -20 -4 -11 3 -20
7 -20 9 0 2 9 4 20 4 11 0 20 -4 20 -9z m384 -49 c0 -22 4 -38 8 -36 5 3 8 0
8 -6 0 -7 -6 -10 -14 -7 -9 4 -12 0 -9 -13 3 -10 0 -21 -6 -24 -6 -4 -11 -16
-11 -27 0 -13 4 -18 12 -13 7 5 8 3 3 -6 -6 -10 -11 -9 -22 5 -13 18 -13 18
-27 -1 -12 -16 -17 -17 -28 -6 -11 11 -10 12 3 7 26 -10 72 86 67 140 -2 25 1
40 6 35 5 -5 9 -26 10 -48z m-95 -12 c-17 -27 -33 -50 -35 -50 -6 0 26 59 45
83 25 31 21 18 -10 -33z m70 33 c0 -10 -4 -27 -9 -38 -6 -15 -8 -11 -7 17 1
21 5 38 10 38 4 0 7 -8 6 -17z m-352 1 c-3 -3 -12 -4 -19 -1 -8 3 -5 6 6 6 11
1 17 -2 13 -5z m3483 -4 c0 -5 -5 -10 -11 -10 -5 0 -7 5 -4 10 3 6 8 10 11 10
2 0 4 -4 4 -10z m-3065 -29 c-3 -6 -11 -11 -17 -11 -6 0 -6 6 2 15 14 17 26
13 15 -4z m-203 -26 c-2 -14 -6 -25 -8 -25 -2 0 -4 11 -4 25 0 14 4 25 9 25 4
0 6 -11 3 -25z m-167 -11 c9 -15 12 -23 6 -20 -11 7 -35 46 -28 46 3 0 12 -12
22 -26z m269 -33 c-8 -17 -16 -31 -17 -31 -1 0 -2 14 -3 31 -1 17 2 25 6 19
11 -17 22 4 14 27 -5 16 -4 16 5 2 8 -12 7 -25 -5 -48z m3221 50 c-3 -6 3 -14
12 -20 10 -6 14 -10 8 -11 -19 0 -38 18 -31 29 4 6 9 11 12 11 3 0 3 -4 -1 -9z
m-3848 -18 c-9 -9 -20 -13 -24 -9 -4 4 -1 11 7 16 25 16 35 11 17 -7z m321
-28 c-3 -3 -9 2 -12 12 -6 14 -5 15 5 6 7 -7 10 -15 7 -18z m412 -7 c0 -5 -12
-13 -26 -18 -35 -14 -37 -13 -16 8 18 19 42 25 42 10z m-260 -25 c0 -14 2 -15
9 -5 6 11 9 9 13 -6 5 -16 2 -19 -11 -14 -26 9 -42 42 -21 42 6 0 10 -8 10
-17z m416 -35 c8 -16 13 -28 10 -28 -5 0 -46 69 -46 78 0 8 15 -13 36 -50z
m-517 -12 c-3 -3 -11 5 -18 17 -13 21 -12 21 5 5 10 -10 16 -20 13 -22z m366
15 c-3 -6 -11 -11 -17 -11 -6 0 -6 6 2 15 14 17 26 13 15 -4z m112 -3 c-3 -8
-6 -5 -6 6 -1 11 2 17 5 13 3 -3 4 -12 1 -19z m2950 -13 c1 -19 -3 -35 -8 -35
-5 0 -9 16 -9 35 0 46 14 46 17 0z m-2632 -23 l-28 -27 24 31 c13 17 26 30 28
27 3 -2 -8 -16 -24 -31z m-655 8 c-8 -6 -22 -10 -30 -9 -9 0 -5 6 10 14 27 14
44 10 20 -5z m145 1 c-3 -6 -15 -11 -26 -11 -10 0 -19 -4 -19 -10 0 -5 -7 -7
-17 -3 -13 5 -12 8 8 16 13 6 27 11 31 11 3 1 10 4 14 9 10 10 18 1 9 -12z
m865 15 c0 -2 -7 -7 -16 -10 -8 -3 -12 -2 -9 4 6 10 25 14 25 6z m-1289 -33
c8 -10 9 -14 2 -10 -6 4 -14 3 -17 -2 -4 -5 -2 -12 4 -16 5 -3 10 -11 10 -18
0 -6 -6 -2 -14 9 -9 12 -11 23 -5 30 5 6 6 14 2 17 -3 4 -4 7 -1 7 3 0 12 -8
19 -17z m579 2 c-7 -9 -15 -13 -19 -10 -3 3 1 10 9 15 21 14 24 12 10 -5z
m660 6 c-8 -5 -26 -11 -40 -15 -21 -5 -20 -3 5 9 32 15 60 20 35 6z m-1700
-15 c0 -2 -7 -9 -15 -16 -13 -11 -14 -10 -9 4 5 14 24 23 24 12z m525 -8 c5 4
5 1 1 -6 -6 -10 -11 -10 -22 -1 -8 6 -14 14 -14 16 0 3 6 0 13 -6 8 -6 18 -7
22 -3z m369 -22 c-3 -9 -10 -13 -15 -10 -5 3 -3 11 4 19 15 16 19 13 11 -9z
m-74 8 c0 -8 -19 -13 -24 -6 -3 5 1 9 9 9 8 0 15 -2 15 -3z m705 -4 c-3 -5
-16 -15 -28 -21 -19 -9 -19 -8 3 10 28 23 34 26 25 11z m-60 -29 c3 -5 2 -12
-3 -15 -5 -3 -9 1 -9 9 0 17 3 19 12 6z m516 -8 c13 -16 12 -17 -3 -4 -10 7
-18 15 -18 17 0 8 8 3 21 -13z m2032 -8 c4 -8 2 -17 -3 -20 -6 -4 -10 3 -10
14 0 25 6 27 13 6z m-2106 -1 c-3 -3 -12 -4 -19 -1 -8 3 -5 6 6 6 11 1 17 -2
13 -5z m-1157 -25 c0 -6 -4 -7 -10 -4 -5 3 -10 11 -10 16 0 6 5 7 10 4 6 -3
10 -11 10 -16z m1256 -29 c17 -14 33 -33 37 -43 4 -10 11 -15 17 -12 6 3 7 -1
4 -9 -5 -12 -13 -6 -35 24 -16 21 -42 46 -59 55 -16 8 -30 18 -30 20 0 9 38
-11 66 -35z m-751 20 c-3 -5 -12 -10 -18 -10 -7 0 -6 4 3 10 19 12 23 12 15 0z
m-1150 -10 c-3 -5 -12 -10 -18 -10 -7 0 -6 4 3 10 19 12 23 12 15 0z m725 -11
c0 -6 -4 -7 -10 -4 -5 3 -10 11 -10 16 0 6 5 7 10 4 6 -3 10 -11 10 -16z
m-855 -7 c-3 -3 -11 0 -18 7 -9 10 -8 11 6 5 10 -3 15 -9 12 -12z m-31 -27
c-4 -8 -11 -12 -16 -9 -6 4 -5 10 3 15 19 12 19 11 13 -6z m1287 -12 c13 -16
12 -17 -3 -4 -10 7 -18 15 -18 17 0 8 8 3 21 -13z m2777 -34 c-20 -13 -28 -11
-28 7 0 10 6 14 15 10 8 -3 14 -2 14 2 -3 18 4 25 8 8 3 -10 -1 -22 -9 -27z
m-4038 1 c0 -5 -5 -10 -11 -10 -5 0 -7 5 -4 10 3 6 8 10 11 10 2 0 4 -4 4 -10z
m2108 -41 c-3 -8 -7 -3 -11 10 -4 17 -3 21 5 13 5 -5 8 -16 6 -23z m135 24
c-7 -2 -19 -2 -25 0 -7 3 -2 5 12 5 14 0 19 -2 13 -5z m-2428 -10 c-11 -3 -25
-9 -31 -14 -6 -5 -14 -6 -17 -2 -16 15 -5 23 31 22 21 -1 29 -3 17 -6z m145
-7 c0 -3 -4 -8 -10 -11 -5 -3 -10 -1 -10 4 0 6 5 11 10 11 6 0 10 -2 10 -4z
m-47 -31 c-3 -9 -8 -14 -10 -11 -3 3 -2 9 2 15 9 16 15 13 8 -4z m1118 -57 c6
-12 6 -18 -1 -18 -5 0 -10 6 -10 14 0 7 -7 19 -15 26 -8 7 -15 18 -15 24 1 11
24 -15 41 -46z m19 27 c14 -19 14 -19 -2 -6 -10 7 -18 18 -18 24 0 6 1 8 3 6
1 -2 9 -13 17 -24z m1287 -31 c-3 -3 -12 -4 -19 -1 -8 3 -5 6 6 6 11 1 17 -2
13 -5z m-1320 -30 c-3 -3 -12 -4 -19 -1 -8 3 -5 6 6 6 11 1 17 -2 13 -5z m65
-11 c-6 -2 -9 -9 -6 -15 4 -6 -2 -5 -15 1 -28 16 -26 21 7 20 15 0 21 -3 14
-6z m-1182 -38 c0 -10 -41 -11 -49 -1 -8 10 -3 11 19 8 17 -2 30 -5 30 -7z
m4111 -10 c5 4 9 0 10 -7 0 -7 2 -22 4 -33 2 -10 -1 -25 -7 -32 -17 -21 -38
-15 -38 10 0 18 2 19 10 7 5 -8 10 -10 10 -4 0 15 -25 36 -34 27 -3 -4 2 9 11
28 13 25 18 30 21 16 2 -9 8 -15 13 -12z m-4186 -4 c-6 -5 -23 -12 -40 -15
l-30 -6 30 14 c35 18 54 20 40 7z m45 -31 c-20 -13 -40 -13 -40 0 0 6 12 10
28 10 21 0 24 -2 12 -10z m1960 -10 c-8 -5 -22 -9 -30 -9 -10 0 -8 3 5 9 27
12 43 12 25 0z m-1675 -50 c-4 -12 -9 -19 -12 -17 -3 3 -2 15 2 27 4 12 9 19
12 17 3 -3 2 -15 -2 -27z m2122 4 c-3 -3 -12 -4 -19 -1 -8 3 -5 6 6 6 11 1 17
-2 13 -5z m-2143 -30 c3 -8 2 -12 -4 -9 -6 3 -10 10 -10 16 0 14 7 11 14 -7z
m53 -6 c-3 -8 -6 -5 -6 6 -1 11 2 17 5 13 3 -3 4 -12 1 -19z m1108 -18 c3 -5
1 -10 -4 -10 -6 0 -11 5 -11 10 0 6 2 10 4 10 3 0 8 -4 11 -10z m-1325 -6 c0
-8 -19 -13 -24 -6 -3 5 1 9 9 9 8 0 15 -2 15 -3z m160 -4 c0 -5 -7 -7 -15 -4
-8 4 -15 8 -15 10 0 2 7 4 15 4 8 0 15 -4 15 -10z m-120 -15 c0 -2 -10 -9 -22
-15 -22 -11 -22 -10 -4 4 21 17 26 19 26 11z m1730 1 c0 -2 -7 -7 -16 -10 -8
-3 -12 -2 -9 4 6 10 25 14 25 6z m2168 -21 c-3 -3 -9 2 -12 12 -6 14 -5 15 5
6 7 -7 10 -15 7 -18z m-3658 -5 c0 -11 -4 -20 -9 -20 -5 0 -7 9 -4 20 3 11 7
20 9 20 2 0 4 -9 4 -20z m1297 14 c-3 -3 -12 -4 -19 -1 -8 3 -5 6 6 6 11 1 17
-2 13 -5z m70 0 c-3 -3 -12 -4 -19 -1 -8 3 -5 6 6 6 11 1 17 -2 13 -5z m66 -1
c-7 -2 -19 -2 -25 0 -7 3 -2 5 12 5 14 0 19 -2 13 -5z m-1566 -9 c-3 -3 -12
-4 -19 -1 -8 3 -5 6 6 6 11 1 17 -2 13 -5z m3859 -54 c3 -24 1 -39 -4 -36 -5
3 -10 24 -10 47 -1 51 7 45 14 -11z m-2253 33 c-7 -2 -19 -2 -25 0 -7 3 -2 5
12 5 14 0 19 -2 13 -5z m2178 -36 c-8 -8 -11 -5 -11 9 0 27 14 41 18 19 2 -9
-1 -22 -7 -28z m-2251 13 c0 -5 -9 -10 -20 -10 -11 0 -20 5 -20 10 0 6 9 10
20 10 11 0 20 -4 20 -10z m-1410 -15 c0 -8 -2 -15 -4 -15 -2 0 -6 7 -10 15 -3
8 -1 15 4 15 6 0 10 -7 10 -15z m-128 -27 c-8 -8 -9 -4 -5 13 4 13 8 18 11 10
2 -7 -1 -18 -6 -23z m-142 18 c0 -3 -4 -8 -10 -11 -5 -3 -10 -1 -10 4 0 6 5
11 10 11 6 0 10 -2 10 -4z m255 -24 c-2 -2 -11 -5 -22 -6 -10 -2 -19 -11 -21
-22 -3 -16 -1 -17 7 -4 9 13 11 13 11 -1 0 -9 -6 -22 -14 -28 -11 -9 -13 -6
-13 16 0 15 6 38 14 50 12 18 17 20 28 10 7 -7 12 -13 10 -15z m-205 8 c0 -5
-4 -10 -10 -10 -5 0 -10 5 -10 10 0 6 5 10 10 10 6 0 10 -4 10 -10z m1940 0
c-8 -5 -19 -10 -25 -10 -5 0 -3 5 5 10 8 5 20 10 25 10 6 0 3 -5 -5 -10z
m1942 -4 c-4 -6 -7 -14 -7 -18 0 -20 -15 -17 -15 4 0 15 6 25 15 25 8 0 11 -5
7 -11z m-2285 -11 c-5 -11 1 -14 21 -11 15 2 18 1 8 -1 -14 -4 -16 -7 -7 -13
9 -5 10 -10 2 -14 -6 -4 -11 -2 -11 3 0 6 -7 11 -15 11 -8 0 -15 9 -15 20 0
11 5 20 11 20 6 0 9 -7 6 -15z m40 9 c-3 -3 -12 -4 -19 -1 -8 3 -5 6 6 6 11 1
17 -2 13 -5z m250 -10 c-3 -3 -12 -4 -19 -1 -8 3 -5 6 6 6 11 1 17 -2 13 -5z
m-1747 -48 c0 -26 -6 -18 -14 19 -5 22 -4 26 4 15 5 -8 10 -24 10 -34z m3837
2 c-3 -8 -6 -5 -6 6 -1 11 2 17 5 13 3 -3 4 -12 1 -19z m-3657 -8 c0 -5 -2
-10 -4 -10 -3 0 -8 5 -11 10 -3 6 -1 10 4 10 6 0 11 -4 11 -10z m-190 -30 c0
-3 -11 -13 -25 -20 -18 -9 -22 -16 -13 -21 7 -4 17 -5 23 -2 5 4 7 2 2 -2 -10
-11 -48 -14 -41 -3 3 4 -1 11 -10 14 -8 3 -17 13 -21 22 -5 14 -4 14 13 -1 18
-16 20 -16 35 1 19 21 22 37 5 26 -7 -4 -8 -3 -4 5 6 9 11 9 22 0 8 -6 14 -15
14 -19z m1205 20 c3 -5 -1 -10 -10 -10 -9 0 -13 5 -10 10 3 6 8 10 10 10 2 0
7 -4 10 -10z m2670 -19 c0 -17 -5 -35 -11 -41 -9 -9 -11 -4 -10 17 2 25 12 53
19 53 1 0 2 -13 2 -29z m-2605 9 c0 -5 -5 -10 -11 -10 -5 0 -7 5 -4 10 3 6 8
10 11 10 2 0 4 -4 4 -10z m-1408 -12 c-9 -9 -15 -9 -24 0 -9 9 -7 12 12 12 19
0 21 -3 12 -12z m1378 2 c0 -5 -5 -10 -11 -10 -5 0 -7 5 -4 10 3 6 8 10 11 10
2 0 4 -4 4 -10z m-190 -10 c0 -5 -4 -10 -10 -10 -5 0 -10 5 -10 10 0 6 5 10
10 10 6 0 10 -4 10 -10z m-882 -25 c-3 -3 -9 2 -12 12 -6 14 -5 15 5 6 7 -7
10 -15 7 -18z m782 -33 c0 -4 -9 -8 -20 -8 -11 0 -20 4 -20 8 0 4 9 8 20 8 11
0 20 -4 20 -8z m-1000 -14 c0 6 7 12 16 12 14 0 14 -1 0 -16 -17 -16 -36 -11
-36 9 0 7 4 6 10 -3 6 -10 10 -11 10 -2z m3893 -13 c-3 -9 -8 -14 -10 -11 -3
3 -2 9 2 15 9 16 15 13 8 -4z m-3716 -17 c-3 -8 -6 -5 -6 6 -1 11 2 17 5 13 3
-3 4 -12 1 -19z m-209 -2 c-7 -8 -15 -12 -17 -11 -5 6 10 25 20 25 5 0 4 -6
-3 -14z m3535 -6 c-3 -11 -7 -20 -9 -20 -2 0 -4 9 -4 20 0 11 4 20 9 20 5 0 7
-9 4 -20z m185 13 c-10 -2 -18 -9 -18 -14 0 -6 5 -7 12 -3 7 4 8 3 4 -5 -4 -6
-12 -9 -17 -6 -5 4 -12 -1 -15 -9 -3 -9 -11 -16 -17 -16 -5 0 -3 8 6 18 10 10
17 24 17 30 0 7 10 11 23 11 16 -1 18 -2 5 -6z m-3637 -26 c-10 -9 -11 -8 -5
6 3 10 9 15 12 12 3 -3 0 -11 -7 -18z m623 4 c7 -11 -22 -23 -35 -15 -5 3 -9
0 -9 -6 0 -6 -4 -9 -10 -5 -9 6 -41 -9 -71 -33 -13 -10 -19 -10 -30 5 -12 15
-12 16 2 11 9 -4 32 3 50 14 30 18 69 34 91 37 4 1 9 -3 12 -8z m-499 -11 c3
-5 1 -10 -4 -10 -6 0 -11 5 -11 10 0 6 2 10 4 10 3 0 8 -4 11 -10z m3161 -27
c-8 -16 -22 -36 -31 -43 -15 -13 -17 -12 -13 5 2 11 10 19 17 17 6 -1 11 3 10
10 -3 26 1 39 11 33 6 -3 10 -1 10 6 0 7 3 10 6 7 3 -4 -1 -19 -10 -35z
m-3360 18 c-4 -5 -3 -11 1 -14 5 -2 3 -2 -4 -1 -17 4 -34 -21 -27 -40 3 -9 1
-16 -5 -16 -5 0 -19 -10 -31 -22 -17 -19 -20 -19 -20 -4 0 11 -5 15 -12 10 -8
-4 -10 -3 -5 2 9 9 13 10 43 13 10 0 14 7 11 15 -3 8 1 20 8 26 8 7 13 16 10
20 -3 5 3 11 12 13 10 3 19 5 21 6 2 0 1 -3 -2 -8z m235 -18 c-12 -20 -14 -14
-5 12 4 9 9 14 11 11 3 -2 0 -13 -6 -23z m469 7 c0 -5 -10 -10 -22 -9 -22 0
-22 1 -3 9 11 5 21 9 23 9 1 1 2 -3 2 -9z m2620 -4 c0 -3 -4 -8 -10 -11 -5 -3
-10 -1 -10 4 0 6 5 11 10 11 6 0 10 -2 10 -4z m-3316 -25 c3 -5 -1 -11 -9 -14
-9 -4 -12 -1 -8 9 6 16 10 17 17 5z m611 -9 c-3 -3 -11 0 -18 7 -9 10 -8 11 6
5 10 -3 15 -9 12 -12z m2202 12 c-3 -3 -12 -4 -19 -1 -8 3 -5 6 6 6 11 1 17
-2 13 -5z m-27 -24 c0 -5 -4 -10 -10 -10 -5 0 -10 5 -10 10 0 6 5 10 10 10 6
0 10 -4 10 -10z m-2751 -26 c-17 -21 -31 -17 -17 5 7 11 16 17 20 14 5 -2 4
-11 -3 -19z m28 -21 c-3 -10 -5 -2 -5 17 0 19 2 27 5 18 2 -10 2 -26 0 -35z
m549 30 c-3 -4 -17 -8 -29 -10 -17 -2 -19 -1 -7 7 17 11 47 14 36 3z m2088 -5
c-5 -8 -2 -9 9 -5 18 7 91 -36 80 -47 -4 -3 1 -6 10 -6 10 0 17 -7 17 -15 0
-8 5 -15 10 -15 17 0 11 29 -10 50 -25 25 -25 36 -2 42 22 6 45 -24 36 -46 -3
-9 1 -13 12 -13 9 1 19 -4 22 -12 3 -9 -1 -11 -17 -6 -18 5 -21 2 -20 -22 0
-23 2 -25 8 -9 7 18 8 18 14 3 3 -9 13 -17 22 -17 8 0 15 -9 15 -20 0 -11 -5
-20 -11 -20 -6 0 -9 7 -5 15 3 9 0 15 -10 15 -10 0 -14 -6 -11 -14 3 -8 -4
-18 -16 -23 -30 -14 -97 -4 -97 13 0 8 -4 14 -9 14 -5 0 -15 16 -22 34 -7 19
-16 33 -20 30 -4 -2 -11 6 -15 18 -4 13 -12 26 -18 30 -7 5 -4 8 7 8 9 0 16 3
16 8 -2 12 1 22 7 22 3 0 2 -5 -2 -12z m-2709 -8 c3 -6 -1 -7 -9 -4 -18 7 -21
14 -7 14 6 0 13 -4 16 -10z m112 4 c-3 -3 -12 -4 -19 -1 -8 3 -5 6 6 6 11 1
17 -2 13 -5z m-142 -33 c-3 -6 -11 -8 -17 -5 -6 4 -5 9 3 15 16 10 23 4 14
-10z m155 -1 c0 -5 -2 -10 -4 -10 -3 0 -8 5 -11 10 -3 6 -1 10 4 10 6 0 11 -4
11 -10z m-116 -38 c-8 -18 -21 -32 -29 -32 -15 0 -29 -46 -19 -62 4 -7 3 -8
-4 -4 -19 12 -15 64 6 70 9 3 26 19 37 35 25 38 30 34 9 -7z m601 10 c-3 -3
-11 0 -18 7 -9 10 -8 11 6 5 10 -3 15 -9 12 -12z m-651 -16 c-6 -16 -24 -23
-24 -8 0 10 22 33 27 28 2 -2 1 -11 -3 -20z m2636 4 c0 -5 -4 -10 -10 -10 -5
0 -10 5 -10 10 0 6 5 10 10 10 6 0 10 -4 10 -10z m-1943 -6 c-3 -3 -12 -4 -19
-1 -8 3 -5 6 6 6 11 1 17 -2 13 -5z m-740 -26 c-3 -8 -6 -5 -6 6 -1 11 2 17 5
13 3 -3 4 -12 1 -19z m220 -10 c-3 -8 -6 -5 -6 6 -1 11 2 17 5 13 3 -3 4 -12
1 -19z m2457 16 c10 -4 16 -18 16 -36 0 -17 4 -27 10 -23 6 3 10 1 10 -4 0
-21 -29 -11 -60 20 -17 17 -24 29 -15 26 9 -4 15 -1 15 8 0 17 2 17 24 9z
m746 -18 c0 -3 -4 -8 -10 -11 -5 -3 -10 -1 -10 4 0 6 5 11 10 11 6 0 10 -2 10
-4z m-3320 -56 c0 -11 -2 -20 -4 -20 -2 0 -6 9 -9 20 -3 11 -1 20 4 20 5 0 9
-9 9 -20z m-2 -36 c13 -9 12 -11 -2 -11 -9 0 -16 5 -17 11 0 6 -4 2 -9 -9 -7
-16 -9 -17 -9 -3 -1 9 2 24 6 34 5 14 8 15 11 3 3 -7 12 -19 20 -25z m59 14
c-3 -8 -6 -5 -6 6 -1 11 2 17 5 13 3 -3 4 -12 1 -19z m-57 -48 c0 -5 -2 -10
-4 -10 -3 0 -8 5 -11 10 -3 6 -1 10 4 10 6 0 11 -4 11 -10z m680 -30 c0 -5 -5
-10 -11 -10 -5 0 -7 5 -4 10 3 6 8 10 11 10 2 0 4 -4 4 -10z m-650 -24 c0 -3
-4 -8 -10 -11 -5 -3 -10 -1 -10 4 0 6 5 11 10 11 6 0 10 -2 10 -4z m2490 -11
c14 -16 10 -18 -14 -9 -9 3 -16 10 -16 15 0 14 16 11 30 -6z m-2523 -15 c1
-11 -2 -18 -8 -15 -11 7 -12 35 -1 35 4 0 8 -9 9 -20z m-20 -67 c-3 -10 -5 -4
-5 12 0 17 2 24 5 18 2 -7 2 -21 0 -30z m160 -20 c-3 -10 -5 -4 -5 12 0 17 2
24 5 18 2 -7 2 -21 0 -30z m-160 -35 c-3 -7 -5 -2 -5 12 0 14 2 19 5 13 2 -7
2 -19 0 -25z m70 -20 c-3 -8 -6 -5 -6 6 -1 11 2 17 5 13 3 -3 4 -12 1 -19z
m43 -22 c0 -3 -4 -8 -10 -11 -5 -3 -10 -1 -10 4 0 6 5 11 10 11 6 0 10 -2 10
-4z m-7 -57 c-9 -9 -12 -7 -10 9 1 14 5 18 11 12 7 -7 6 -14 -1 -21z m2394 -5
c-3 -3 -12 -4 -19 -1 -8 3 -5 6 6 6 11 1 17 -2 13 -5z m-127 -34 c0 -5 -8 -10
-17 -10 -15 0 -16 2 -3 10 19 12 20 12 20 0z m-2183 -232 c-3 -8 -6 -5 -6 6
-1 11 2 17 5 13 3 -3 4 -12 1 -19z"/>
<path d="M5270 6060 c0 -5 5 -10 10 -10 6 0 10 5 10 10 0 6 -4 10 -10 10 -5 0
-10 -4 -10 -10z"/>
<path d="M4520 4420 c-8 -5 -10 -10 -5 -10 6 0 17 5 25 10 8 5 11 10 5 10 -5
0 -17 -5 -25 -10z"/>
<path d="M4630 4421 c0 -6 4 -13 10 -16 6 -3 7 1 4 9 -7 18 -14 21 -14 7z"/>
<path d="M4522 4401 c-11 -7 -11 -9 1 -14 9 -3 18 1 21 9 6 16 -2 18 -22 5z"/>
<path d="M4618 4323 c7 -3 16 -2 19 1 4 3 -2 6 -13 5 -11 0 -14 -3 -6 -6z"/>
<path d="M4600 4290 c0 -5 4 -10 9 -10 6 0 13 5 16 10 3 6 -1 10 -9 10 -9 0
-16 -4 -16 -10z"/>
<path d="M5363 6393 c4 -6 3 -13 -1 -15 -5 -1 4 -13 20 -26 19 -16 26 -19 22
-8 -3 9 -10 16 -16 16 -5 0 -7 4 -4 9 3 5 -2 15 -11 22 -9 8 -14 9 -10 2z"/>
<path d="M5551 6386 c-10 -11 -8 -16 6 -20 17 -5 29 -24 62 -96 6 -14 9 -17 6
-7 -3 10 -1 15 5 12 16 -10 11 8 -10 35 -18 23 -29 52 -13 37 3 -4 13 -1 22 6
14 11 14 10 3 -5 -12 -15 -11 -22 7 -47 22 -30 27 -46 12 -37 -5 3 -8 -6 -8
-21 0 -21 1 -23 9 -9 13 23 26 12 40 -37 16 -56 15 -55 17 -74 1 -13 4 -14 9
-6 10 16 32 -38 48 -115 4 -23 14 -27 14 -6 0 16 2 17 10 4 8 -13 10 -12 10 3
0 9 -7 17 -15 17 -8 0 -15 7 -15 16 0 8 5 12 10 9 6 -3 10 -1 10 4 0 6 -4 11
-10 11 -5 0 -10 9 -10 19 0 11 -5 32 -12 48 -6 15 -12 31 -12 35 -1 3 -4 10
-8 14 -5 4 -8 18 -8 31 0 16 -4 22 -12 17 -8 -5 -9 -2 -5 9 3 9 3 16 -1 16
-19 -3 -22 3 -7 17 20 21 15 37 -16 44 -13 3 -29 16 -35 28 -28 57 -77 80
-103 48z m154 -105 c-3 -6 -11 -8 -17 -5 -6 4 -5 9 3 15 16 10 23 4 14 -10z"/>
<path d="M1911 6374 c0 -11 3 -14 6 -6 3 7 2 16 -1 19 -3 4 -6 -2 -5 -13z"/>
<path d="M5269 6376 c6 -7 7 -17 3 -21 -4 -5 0 -6 8 -3 9 3 23 1 31 -6 19 -14
32 -46 19 -46 -6 0 -10 -4 -10 -9 0 -9 37 -7 46 2 2 2 -10 18 -26 35 -16 18
-24 32 -17 32 16 1 -18 20 -44 25 -16 3 -18 1 -10 -9z"/>
<path d="M1692 6355 c-17 -36 -15 -50 3 -35 8 7 13 16 10 20 -3 5 -1 11 5 15
12 7 13 25 2 25 -5 0 -14 -11 -20 -25z"/>
<path d="M1796 6353 c-6 -14 -5 -15 5 -6 7 7 10 15 7 18 -3 3 -9 -2 -12 -12z"/>
<path d="M5470 6350 c6 -11 13 -20 16 -20 2 0 0 9 -6 20 -6 11 -13 20 -16 20
-2 0 0 -9 6 -20z"/>
<path d="M1871 6344 c0 -11 3 -14 6 -6 3 7 2 16 -1 19 -3 4 -6 -2 -5 -13z"/>
<path d="M1786 6303 c-16 -16 -25 -34 -23 -44 3 -12 -1 -17 -14 -16 -11 1 -19
6 -19 11 0 5 -2 7 -5 4 -3 -3 -1 -16 4 -29 5 -13 10 -18 10 -11 1 6 5 12 9 12
5 0 8 -24 7 -52 -2 -33 -1 -38 2 -14 2 21 11 49 19 61 12 18 12 24 2 28 -9 3
-10 8 -2 16 8 9 14 8 24 -4 11 -13 10 -21 -10 -47 -12 -17 -18 -28 -12 -24 5
3 13 -2 17 -12 6 -15 8 -14 20 8 10 19 11 28 2 39 -10 12 -9 14 5 8 12 -4 15
-2 11 9 -3 7 0 14 7 14 6 0 10 11 8 25 -2 14 -7 25 -12 24 -5 0 -12 4 -16 10
-4 8 -16 2 -34 -16z m45 -36 c-6 -6 -14 -7 -18 -2 -5 4 -2 10 5 12 6 3 13 12
13 21 1 14 2 14 6 -2 3 -10 0 -23 -6 -29z m-18 -62 c-3 -9 -8 -14 -10 -11 -3
3 -2 9 2 15 9 16 15 13 8 -4z"/>
<path d="M1672 6280 c0 -14 2 -19 5 -12 2 6 2 18 0 25 -3 6 -5 1 -5 -13z"/>
<path d="M1661 6224 c0 -11 3 -14 6 -6 3 7 2 16 -1 19 -3 4 -6 -2 -5 -13z"/>
<path d="M5481 6213 c7 -12 15 -20 18 -17 3 2 -3 12 -13 22 -17 16 -18 16 -5
-5z"/>
<path d="M5657 6209 c-4 -16 -3 -18 9 -8 7 6 11 15 8 20 -8 13 -11 11 -17 -12z"/>
<path d="M1726 6187 c3 -10 9 -15 12 -12 3 3 0 11 -7 18 -10 9 -11 8 -5 -6z"/>
<path d="M1663 6165 c0 -8 4 -12 9 -9 4 3 8 9 8 15 0 5 -4 9 -8 9 -5 0 -9 -7
-9 -15z"/>
<path d="M5574 6128 c0 -11 12 -27 26 -36 l25 -14 -24 19 c-13 11 -21 25 -17
31 3 6 2 13 -2 16 -5 3 -9 -4 -8 -16z"/>
<path d="M5610 6146 c0 -2 8 -10 18 -17 15 -13 16 -12 3 4 -13 16 -21 21 -21
13z"/>
<path d="M1896 6105 c-3 -8 -1 -15 4 -15 6 0 10 7 10 15 0 8 -2 15 -4 15 -2 0
-6 -7 -10 -15z"/>
<path d="M1710 6091 c0 -6 4 -13 10 -16 6 -3 7 1 4 9 -7 18 -14 21 -14 7z"/>
<path d="M1680 6056 c0 -8 4 -17 9 -20 5 -4 7 3 4 14 -6 23 -13 26 -13 6z"/>
<path d="M1818 6000 c17 -30 32 -39 32 -20 0 6 -5 10 -11 10 -5 0 -8 4 -5 8 2
4 -4 13 -14 20 -18 11 -18 10 -2 -18z"/>
<path d="M1710 5985 c0 -5 5 -17 10 -25 5 -8 10 -10 10 -5 0 6 -5 17 -10 25
-5 8 -10 11 -10 5z"/>
<path d="M1895 5981 c-6 -11 13 -26 22 -17 4 3 1 6 -6 6 -7 0 -9 5 -6 10 3 6
4 10 1 10 -3 0 -7 -4 -11 -9z"/>
<path d="M2105 5950 c3 -5 8 -10 11 -10 2 0 4 5 4 10 0 6 -5 10 -11 10 -5 0
-7 -4 -4 -10z"/>
<path d="M5902 5730 c0 -14 2 -19 5 -12 2 6 2 18 0 25 -3 6 -5 1 -5 -13z"/>
<path d="M5876 5697 c3 -10 9 -15 12 -12 3 3 0 11 -7 18 -10 9 -11 8 -5 -6z"/>
<path d="M1959 5653 c-13 -17 -13 -17 6 -3 11 8 22 16 24 17 2 2 0 3 -6 3 -6
0 -17 -8 -24 -17z"/>
<path d="M1891 5599 c-19 -16 -30 -29 -25 -29 12 0 68 49 63 54 -2 3 -20 -8
-38 -25z"/>
<path d="M5910 5574 c0 -8 -4 -12 -10 -9 -5 3 -10 1 -10 -4 0 -18 19 -12 30 9
7 14 7 20 0 20 -5 0 -10 -7 -10 -16z"/>
<path d="M5840 5566 c0 -2 7 -19 16 -37 10 -23 13 -26 9 -9 -4 14 -7 31 -7 38
-1 10 -18 19 -18 8z"/>
<path d="M5830 5521 c0 -6 4 -13 10 -16 6 -3 7 1 4 9 -7 18 -14 21 -14 7z"/>
<path d="M5850 5474 c0 -8 5 -12 10 -9 6 4 8 11 5 16 -9 14 -15 11 -15 -7z"/>
<path d="M2350 5425 c0 -20 16 -34 29 -26 9 6 10 11 2 15 -6 4 -11 4 -11 -1 0
-4 -5 -1 -10 7 -5 8 -10 11 -10 5z"/>
<path d="M2423 5395 c0 -22 2 -30 4 -17 2 12 2 30 0 40 -3 9 -5 -1 -4 -23z"/>
<path d="M1660 5342 c0 -7 -9 -12 -20 -12 -11 0 -20 -4 -20 -9 0 -11 38 -2 46
11 3 5 3 12 0 15 -3 4 -6 1 -6 -5z"/>
<path d="M2417 5298 c8 -57 13 -61 13 -10 0 22 -4 43 -9 46 -5 4 -7 -12 -4
-36z"/>
<path d="M2440 5320 c0 -11 4 -20 9 -20 5 0 7 9 4 20 -3 11 -7 20 -9 20 -2 0
-4 -9 -4 -20z"/>
<path d="M1592 5323 c-6 -2 -10 -9 -6 -14 8 -14 21 -11 21 6 0 8 -1 15 -1 14
-1 0 -7 -3 -14 -6z"/>
<path d="M2332 5308 c5 -15 28 -23 28 -10 0 5 -7 13 -16 16 -10 4 -14 1 -12
-6z"/>
<path d="M1465 5269 c-4 -6 -4 -13 0 -17 3 -3 10 -1 14 7 5 7 11 12 15 11 4
-1 12 1 19 3 6 3 0 6 -15 6 -15 1 -30 -4 -33 -10z"/>
<path d="M1389 5213 c-14 -17 -16 -22 -5 -13 11 8 27 16 38 16 38 3 42 6 23
14 -29 13 -29 12 -56 -17z"/>
<path d="M2616 5214 c-9 -24 -7 -28 9 -14 17 14 20 30 6 30 -5 0 -12 -7 -15
-16z"/>
<path d="M2557 5213 c-4 -3 -7 -13 -6 -22 0 -12 3 -11 9 4 5 11 9 14 9 8 1 -7
5 -13 11 -13 5 0 7 7 4 15 -7 16 -17 19 -27 8z"/>
<path d="M1390 5160 c-9 -6 -10 -10 -3 -10 6 0 15 5 18 10 8 12 4 12 -15 0z"/>
<path d="M1405 5140 c-8 -13 5 -13 25 0 13 8 13 10 -2 10 -9 0 -20 -4 -23 -10z"/>
<path d="M2680 5091 c0 -5 5 -13 10 -16 6 -3 10 -2 10 4 0 5 -4 13 -10 16 -5
3 -10 2 -10 -4z"/>
<path d="M5777 4964 c-4 -4 -7 -17 -7 -28 0 -17 2 -18 10 -6 7 11 10 4 10 -27
0 -24 4 -43 10 -43 6 0 8 17 5 41 -6 47 -18 73 -28 63z"/>
<path d="M2800 4930 c0 -5 5 -10 11 -10 5 0 7 5 4 10 -3 6 -8 10 -11 10 -2 0
-4 -4 -4 -10z"/>
<path d="M5806 4842 c-2 -4 -1 -14 5 -22 7 -12 9 -10 9 8 0 23 -5 28 -14 14z"/>
<path d="M1727 4819 c7 -7 15 -10 18 -7 3 3 -2 9 -12 12 -14 6 -15 5 -6 -5z"/>
<path d="M1625 4770 c-3 -5 -2 -10 4 -10 5 0 13 5 16 10 3 6 2 10 -4 10 -5 0
-13 -4 -16 -10z"/>
<path d="M1636 4742 c-3 -4 8 -13 25 -19 16 -6 29 -7 29 -2 0 5 -5 9 -11 9 -5
0 -7 5 -4 10 3 6 -3 10 -14 10 -11 0 -22 -4 -25 -8z"/>
<path d="M1682 4648 c2 -7 -2 -12 -7 -11 -15 2 -13 -36 1 -41 7 -3 18 2 24 10
8 9 9 14 2 14 -6 0 -13 -6 -15 -12 -4 -9 -6 -8 -6 3 -1 8 4 20 10 26 8 8 8 13
0 18 -7 4 -10 1 -9 -7z"/>
<path d="M2715 4620 c-3 -6 1 -7 9 -4 18 7 21 14 7 14 -6 0 -13 -4 -16 -10z"/>
<path d="M1657 4563 c-4 -3 -7 -13 -7 -22 1 -13 3 -13 11 2 11 19 8 33 -4 20z"/>
<path d="M2425 4560 c-3 -6 1 -7 9 -4 18 7 21 14 7 14 -6 0 -13 -4 -16 -10z"/>
<path d="M5716 4500 c4 -18 0 -37 -10 -51 -9 -13 -16 -18 -16 -11 0 7 -5 10
-11 6 -8 -5 -8 -9 1 -14 7 -4 9 -13 5 -20 -6 -9 -4 -11 4 -5 14 8 50 82 51
101 0 7 -7 14 -15 17 -11 5 -13 0 -9 -23z"/>
<path d="M2268 4432 c-16 -27 -16 -28 5 -29 12 0 16 1 10 4 -10 3 -10 10 -2
25 17 31 5 31 -13 0z"/>
<path d="M5590 4315 c-19 -14 -40 -25 -48 -25 -7 0 -10 -4 -7 -10 3 -5 -1 -10
-9 -10 -9 0 -16 -5 -16 -11 0 -5 6 -7 13 -3 42 26 97 66 102 75 9 13 4 11 -35
-16z"/>
<path d="M5465 4290 c-3 -5 -1 -10 4 -10 6 0 11 5 11 10 0 6 -2 10 -4 10 -3 0
-8 -4 -11 -10z"/>
<path d="M5596 4273 c-6 -14 -5 -15 5 -6 7 7 10 15 7 18 -3 3 -9 -2 -12 -12z"/>
<path d="M5416 4271 c-4 -5 3 -7 14 -4 23 6 26 13 6 13 -8 0 -17 -4 -20 -9z"/>
<path d="M2326 4045 c-20 -15 -20 -15 0 -15 16 0 17 -2 4 -10 -8 -5 -10 -10
-5 -10 6 0 21 7 34 16 18 13 20 18 10 25 -18 11 -21 11 -43 -6z m34 -5 c0 -5
-5 -10 -11 -10 -5 0 -7 5 -4 10 3 6 8 10 11 10 2 0 4 -4 4 -10z"/>
<path d="M2500 4018 c0 -4 7 -8 15 -8 8 0 15 4 15 8 0 5 -7 9 -15 9 -8 0 -15
-4 -15 -9z"/>
<path d="M1945 3859 c-4 -6 -5 -12 -2 -15 2 -3 7 2 10 11 7 17 1 20 -8 4z"/>
<path d="M2665 3860 c-3 -5 -2 -10 4 -10 5 0 13 5 16 10 3 6 2 10 -4 10 -5 0
-13 -4 -16 -10z"/>
<path d="M3875 3850 c-3 -5 1 -10 10 -10 9 0 13 5 10 10 -3 6 -8 10 -10 10 -2
0 -7 -4 -10 -10z"/>
<path d="M4021 3824 c0 -11 3 -14 6 -6 3 7 2 16 -1 19 -3 4 -6 -2 -5 -13z"/>
<path d="M4050 3824 c0 -8 5 -12 10 -9 6 3 10 10 10 16 0 5 -4 9 -10 9 -5 0
-10 -7 -10 -16z"/>
<path d="M3750 3804 c0 -4 7 -12 15 -18 19 -14 9 -57 -11 -49 -20 7 -17 -7 5
-31 52 -57 86 -171 63 -212 -10 -18 -11 -17 -20 7 -24 61 -95 110 -179 124
-34 5 -45 3 -62 -14 -12 -12 -26 -21 -32 -21 -5 0 -7 -4 -4 -10 3 -5 -1 -10
-9 -10 -9 0 -16 6 -16 14 0 8 -10 16 -22 19 -55 13 -123 -14 -157 -62 -22 -30
-29 -81 -11 -81 6 0 10 -5 10 -12 0 -6 10 -22 22 -35 l21 -23 -21 0 c-12 0
-30 10 -40 21 -53 65 -120 105 -195 115 -53 8 -75 -7 -86 -59 -16 -71 21 -137
76 -137 28 1 67 22 57 32 -4 5 14 5 73 -1 6 -1 16 -13 21 -28 8 -21 11 -23 11
-9 1 11 3 17 6 14 8 -8 -6 -59 -14 -54 -4 3 -13 0 -21 -6 -13 -8 -12 -9 1 -5
28 9 52 -63 28 -83 -4 -3 -9 -16 -13 -30 -3 -14 -3 -19 0 -12 8 16 34 -3 34
-25 0 -11 7 -13 25 -9 16 4 25 2 25 -5 0 -6 7 -9 15 -5 8 3 15 1 15 -4 0 -17
35 -11 51 8 9 10 19 31 23 45 3 15 13 27 22 27 11 0 13 -6 9 -20 -5 -14 -2
-20 10 -20 12 0 15 6 10 20 -7 23 13 28 21 6 3 -8 36 -24 72 -35 37 -12 74
-25 82 -30 21 -14 3 -27 -19 -14 -29 18 -138 -3 -264 -52 -12 -5 -17 -3 -15 6
2 8 -8 14 -25 15 -16 2 -35 8 -43 15 -11 9 -14 8 -14 -7 0 -11 -5 -26 -10 -34
-7 -11 -8 -5 -4 19 6 30 5 32 -12 23 -10 -5 -23 -11 -29 -11 -31 -4 -85 -23
-90 -31 -4 -6 -11 -8 -16 -5 -5 4 -12 -1 -15 -9 -3 -9 -10 -13 -15 -10 -5 3
-9 -2 -9 -10 0 -9 -7 -16 -15 -16 -8 0 -15 -4 -15 -10 0 -5 -6 -10 -12 -10 -7
0 -27 -13 -43 -28 -35 -33 -105 -50 -105 -26 0 8 -4 12 -10 9 -5 -3 -10 0 -10
7 0 10 -2 10 -9 -1 -7 -11 -10 -9 -13 10 -4 22 -5 21 -16 -11 l-12 -35 5 45 5
45 -16 -32 c-11 -21 -21 -30 -31 -26 -12 5 -14 1 -8 -16 3 -12 1 -35 -7 -51
-14 -33 -33 -41 -23 -10 11 34 -10 22 -23 -13 -15 -42 -16 -79 -2 -57 7 11 10
6 10 -20 0 -19 7 -43 14 -53 14 -18 15 -18 24 -1 8 15 13 16 25 6 18 -15 50
-5 43 14 -3 8 0 11 9 8 7 -3 34 6 60 19 25 14 54 23 64 20 13 -3 21 2 25 15 9
28 29 43 64 47 26 3 29 1 26 -23 -4 -25 -3 -24 6 3 9 30 50 48 50 22 0 -7 4
-6 11 3 7 10 12 11 15 4 3 -7 14 -10 24 -7 23 6 22 7 25 -64 2 -78 15 -77 15
1 0 58 2 67 16 62 9 -3 22 -6 31 -6 9 0 13 -6 10 -15 -4 -8 -2 -17 4 -20 5 -4
6 -11 3 -17 -5 -7 -11 -2 -16 12 l-9 24 -15 -29 c-8 -15 -13 -33 -10 -39 2 -6
5 -3 5 7 1 24 21 21 21 -3 0 -26 27 -37 51 -21 15 9 19 8 19 -2 0 -22 -23 -37
-58 -37 -23 0 -31 -4 -27 -12 4 -7 -1 -4 -10 7 -16 19 -16 19 -11 -10 l6 -30
-15 30 c-12 23 -15 24 -11 8 3 -16 -1 -23 -12 -23 -8 0 -12 -3 -9 -7 4 -3 -1
-12 -11 -19 -9 -7 -17 -17 -17 -22 0 -13 -42 -50 -66 -57 -11 -4 -19 -14 -19
-24 0 -10 -9 -26 -20 -36 -12 -11 -20 -13 -20 -6 0 7 -5 9 -11 6 -16 -10 -30
-55 -22 -68 7 -12 9 -17 11 -49 2 -20 52 -26 52 -7 0 6 -7 8 -16 5 -9 -3 -14
-1 -12 5 2 6 7 10 11 10 4 -1 14 -1 22 -1 8 0 15 -9 15 -20 0 -19 23 -26 70
-22 8 1 32 3 53 4 20 1 37 6 37 10 0 6 77 5 123 -1 10 -1 9 -29 -4 -73 -7 -27
-15 -38 -29 -38 -13 0 -27 -14 -40 -39 -11 -22 -30 -43 -42 -46 -31 -10 -58
-35 -58 -54 0 -9 -24 -33 -53 -55 -29 -21 -44 -36 -34 -33 9 4 17 2 17 -3 0
-6 -4 -10 -10 -10 -5 0 -10 -6 -10 -14 0 -7 -7 -19 -15 -26 -18 -15 -19 -7 -4
23 9 20 9 20 -4 5 -8 -10 -17 -15 -20 -11 -4 3 -7 -1 -7 -10 0 -9 5 -17 11
-17 6 0 9 -6 6 -12 -2 -7 -9 -12 -15 -11 -6 2 -9 -4 -6 -12 4 -11 11 -8 29 13
13 15 26 24 30 21 3 -4 -1 -14 -10 -22 -8 -9 -15 -21 -15 -27 0 -7 6 -5 16 4
20 21 28 20 20 0 -6 -15 -4 -15 11 -3 15 12 16 12 10 -3 -3 -10 -1 -20 5 -24
6 -4 2 -12 -13 -20 -13 -7 -19 -13 -14 -14 18 0 56 31 49 41 -3 5 -10 7 -15 4
-5 -3 -6 1 -3 9 5 12 10 11 29 -6 14 -12 22 -25 19 -30 -3 -4 2 -8 12 -8 11 0
15 -6 11 -20 -3 -11 -1 -18 4 -14 5 3 9 -2 9 -10 0 -9 8 -16 19 -16 10 0 25
-8 32 -17 12 -16 12 -17 -2 -5 -13 10 -19 9 -29 -3 -10 -13 -9 -15 9 -15 20 0
29 -14 14 -23 -5 -2 -2 -2 5 -1 6 2 12 -2 12 -9 0 -9 3 -8 9 1 6 10 10 9 14
-7 5 -20 -5 -27 -28 -21 -5 2 -23 2 -39 1 -15 -1 -35 4 -42 10 -8 7 -14 7 -14
1 0 -5 14 -15 30 -22 17 -7 30 -16 30 -20 0 -5 8 -11 18 -13 16 -4 16 -5 0 -6
-27 -2 -21 -18 10 -26 24 -6 25 -8 8 -14 -15 -6 -17 -9 -6 -16 21 -13 -25 -28
-92 -30 -42 -2 -58 2 -58 11 0 17 -20 29 -29 18 -3 -5 -22 -7 -41 -3 l-35 6
30 3 c25 2 26 3 7 7 -12 2 -20 9 -17 14 4 5 -17 9 -48 9 -30 0 -68 7 -83 15
-28 15 -29 15 -6 21 39 11 24 24 -20 18 -32 -4 -39 -3 -28 5 13 9 13 11 -2 11
-11 0 -18 8 -18 19 0 14 -6 17 -23 14 -17 -3 -26 2 -37 21 -7 14 -19 26 -27
26 -7 0 -13 7 -13 15 0 8 -5 15 -10 15 -6 0 -10 8 -8 18 2 9 -2 16 -8 15 -9
-2 -60 165 -89 288 -18 82 -38 125 -67 149 l-33 27 -63 -23 c-35 -14 -75 -32
-90 -42 -130 -87 -167 -115 -239 -176 -45 -39 -80 -77 -77 -83 2 -7 -5 -13
-15 -13 -29 0 -69 -55 -76 -104 -4 -25 -4 -49 -1 -55 4 -6 2 -20 -5 -32 -10
-19 -9 -21 5 -16 9 4 15 3 15 -1 -3 -20 2 -33 11 -27 6 3 10 1 10 -5 0 -7 7
-10 14 -7 10 4 13 1 9 -9 -5 -13 8 -18 44 -17 7 1 10 -4 7 -9 -4 -6 3 -8 17
-3 17 4 20 3 10 -3 -11 -8 -4 -15 28 -32 24 -12 49 -19 57 -16 9 3 12 1 9 -4
-3 -6 2 -13 12 -16 25 -9 123 -106 117 -116 -3 -4 2 -5 10 -2 8 3 23 -3 33
-13 11 -11 48 -37 84 -58 35 -21 75 -47 88 -57 13 -10 41 -21 63 -24 25 -5 38
-12 39 -23 0 -10 2 -11 6 -4 3 10 8 10 19 -1 8 -8 14 -20 14 -26 0 -6 5 -8 10
-5 6 3 10 0 10 -8 0 -8 7 -20 15 -27 8 -7 15 -21 15 -32 0 -15 3 -17 19 -9 10
6 22 7 25 3 4 -4 5 5 1 19 -4 17 -2 30 6 34 7 5 10 4 5 -3 -4 -6 -4 -23 0 -37
5 -19 9 -23 15 -14 4 7 6 16 3 20 -2 4 5 9 16 12 18 5 19 4 5 -16 -8 -12 -15
-31 -14 -42 0 -20 0 -20 9 0 8 19 9 19 9 1 1 -14 4 -16 14 -7 11 9 17 2 28
-32 8 -23 14 -46 14 -52 0 -5 6 -11 13 -11 6 -1 17 -2 22 -3 6 0 10 -6 10 -12
0 -5 -4 -7 -10 -4 -6 4 -10 -5 -10 -20 0 -15 4 -24 10 -20 6 3 10 -3 10 -15 0
-11 6 -20 13 -19 27 3 35 -2 30 -19 -5 -22 14 -75 25 -68 4 2 8 -11 8 -30 0
-22 7 -39 20 -49 12 -10 14 -14 5 -13 -8 2 -17 -6 -19 -17 -4 -17 -2 -18 12
-6 9 8 19 11 23 7 3 -3 1 -6 -5 -6 -7 0 -12 -4 -12 -10 0 -15 30 -12 31 3 0 6
4 3 9 -8 8 -18 9 -18 9 -2 1 10 5 16 10 12 6 -3 6 -18 0 -38 -11 -40 -12 -37
4 -37 10 0 13 -13 12 -42 -1 -31 4 -50 19 -66 21 -24 21 -24 1 -39 -17 -14
-18 -15 -2 -9 10 3 22 6 26 6 4 0 7 9 7 19 0 11 -4 18 -7 15 -4 -2 -11 0 -14
6 -4 6 -2 9 3 8 6 -2 10 2 10 7 0 6 -4 9 -9 8 -4 -2 -14 7 -20 20 -11 20 -11
21 4 8 14 -11 17 -11 18 0 0 18 21 -30 24 -56 1 -11 5 -40 8 -65 4 -25 4 -38
0 -30 -3 8 -11 21 -17 29 -9 12 -8 13 3 6 10 -6 12 -4 7 4 -6 9 -12 9 -25 -3
-10 -9 -22 -13 -27 -9 -5 5 -5 4 -1 -2 5 -5 12 -10 15 -10 17 -1 32 -18 33
-38 0 -12 3 -16 6 -9 2 6 8 12 13 12 11 0 20 -39 10 -45 -4 -2 -6 -18 -4 -35
2 -16 -1 -30 -7 -30 -6 0 -7 -5 -3 -11 5 -8 9 -8 14 1 5 8 10 6 15 -7 13 -29
14 -43 4 -43 -5 0 -9 7 -9 15 0 8 -4 15 -10 15 -5 0 -7 -7 -3 -16 4 -11 -1
-22 -12 -30 -10 -8 -14 -14 -9 -14 6 0 15 5 21 11 12 12 12 11 15 -71 1 -33
-6 -67 -16 -77 -4 -5 -6 10 -5 31 3 31 0 40 -14 42 -13 2 -15 -1 -8 -10 5 -6
9 -27 9 -45 -1 -18 5 -36 12 -41 10 -6 10 -8 -1 -12 -9 -3 -8 -6 4 -11 11 -4
17 -1 17 8 0 7 3 16 8 18 4 3 5 -17 4 -44 -4 -46 -16 -58 -35 -34 -5 6 -7 2
-5 -9 2 -15 14 -20 62 -23 l59 -5 -7 104 c-13 210 -46 428 -82 541 -51 161
-68 203 -108 262 -23 33 -45 68 -51 77 -5 9 -30 45 -54 80 -24 35 -36 56 -26
48 17 -14 18 -13 12 4 -6 16 -5 17 8 6 11 -9 12 -16 5 -25 -8 -9 -6 -14 5 -19
9 -3 13 -2 10 4 -3 6 -1 10 4 10 10 0 16 -21 12 -42 0 -4 7 -17 17 -28 9 -11
20 -30 23 -43 3 -13 12 -21 23 -20 11 0 15 -4 12 -13 -3 -8 4 -19 17 -26 12
-6 23 -9 24 -7 1 2 5 1 9 -3 3 -4 -3 -5 -16 -3 -18 3 -20 2 -10 -10 7 -8 16
-13 20 -10 5 3 12 0 16 -6 4 -8 3 -9 -4 -5 -7 4 -12 3 -12 -2 0 -17 13 -22 28
-9 11 8 14 8 9 0 -4 -6 -3 -14 3 -18 6 -4 7 -11 4 -17 -5 -8 -1 -9 11 -4 15 5
16 4 5 -9 -8 -10 -9 -15 -1 -15 6 0 11 -9 11 -21 0 -11 3 -18 8 -15 4 2 15 -2
25 -9 16 -11 16 -15 4 -26 -17 -16 -11 -50 8 -43 7 3 15 -5 19 -20 3 -14 12
-23 19 -21 7 3 13 -5 14 -21 1 -21 -1 -24 -9 -13 -8 11 -9 10 -4 -4 3 -10 6
-23 6 -28 0 -6 5 -7 11 -3 8 4 9 0 4 -15 -4 -14 -2 -21 6 -21 7 0 5 -7 -7 -16
-10 -8 -13 -12 -5 -8 11 5 13 1 7 -22 l-6 -29 15 25 16 25 -6 -29 c-4 -18 -1
-34 8 -45 21 -23 28 -71 11 -71 -18 0 -18 -15 1 -30 13 -11 14 -10 9 4 -3 9
-2 16 3 16 5 0 8 -15 8 -34 0 -19 -3 -32 -7 -30 -4 2 -9 0 -13 -6 -3 -5 0 -10
9 -10 11 0 14 -9 11 -35 -2 -19 2 -35 7 -35 6 0 8 -15 6 -34 -2 -19 0 -32 5
-29 5 3 6 -4 2 -17 -5 -17 -4 -21 6 -15 8 4 -2 -7 -21 -24 -23 -21 -28 -29
-15 -25 11 4 25 11 32 16 8 7 10 3 6 -11 -3 -12 -10 -18 -17 -14 -6 3 -6 0 2
-8 18 -20 15 -33 -5 -18 -16 13 -17 12 -4 -3 7 -10 17 -15 22 -12 5 3 9 0 9
-5 0 -6 13 -11 29 -11 28 0 28 0 20 48 -4 26 -11 56 -15 66 -4 12 -4 17 2 13
6 -3 9 9 9 29 -1 19 2 34 7 34 4 0 8 4 8 10 0 5 -5 9 -11 7 -6 -1 -13 5 -14
14 -2 9 -6 26 -10 38 -5 18 -3 21 18 19 22 -2 24 -5 16 -26 -12 -31 -12 -32 7
-32 8 0 12 -4 9 -10 -3 -6 1 -7 10 -4 11 5 15 15 11 38 -2 17 -5 31 -6 31 -1
0 -3 9 -5 20 -6 41 -16 92 -31 152 -9 34 -12 68 -8 74 5 9 2 10 -9 6 -10 -4
-14 -2 -11 7 7 19 -80 260 -124 341 -3 6 -2 7 3 3 4 -4 13 0 20 9 9 13 14 13
20 3 5 -8 4 -11 -2 -7 -6 4 -13 0 -17 -8 -3 -8 0 -14 7 -12 18 3 27 20 22 38
-3 10 1 16 10 16 11 0 14 -7 10 -21 -5 -19 -5 -20 5 -3 12 18 5 75 -7 63 -3
-3 -12 -1 -20 5 -10 9 -13 7 -13 -7 0 -14 -3 -15 -12 -6 -7 7 -17 12 -22 12
-6 0 -5 -5 2 -12 7 -7 12 -17 12 -22 0 -6 -5 -4 -10 4 -9 13 -11 13 -21 0 -8
-12 -9 -10 -4 7 5 17 3 22 -8 17 -18 -6 -41 21 -31 37 4 7 3 9 -4 5 -6 -3 -16
2 -21 13 -10 18 -6 20 77 26 83 6 503 68 550 81 13 4 22 2 22 -5 0 -6 -3 -10
-8 -9 -4 2 -15 -4 -23 -12 -15 -13 -15 -16 0 -28 14 -12 14 -13 -2 -8 -15 5
-17 2 -12 -17 4 -13 3 -17 -2 -10 -9 12 -30 13 -50 0 -6 -4 -15 -2 -19 4 -11
18 -24 -12 -14 -32 5 -9 7 -27 5 -39 -4 -19 -2 -21 8 -11 6 6 12 17 12 23 0
14 33 20 41 7 3 -5 0 -9 -6 -9 -7 0 -10 -7 -6 -15 3 -9 0 -15 -9 -15 -9 0 -12
-6 -9 -15 4 -8 1 -15 -5 -15 -6 0 -8 -7 -5 -15 4 -8 1 -15 -5 -15 -6 0 -8 -7
-4 -17 5 -11 3 -14 -6 -8 -10 6 -11 2 -6 -15 5 -16 4 -20 -5 -15 -9 5 -10 1
-5 -15 5 -17 4 -21 -6 -15 -9 6 -11 4 -6 -7 3 -9 0 -21 -6 -27 -6 -6 -7 -11
-3 -11 5 0 3 -7 -4 -15 -7 -8 -9 -15 -5 -15 4 0 2 -7 -5 -15 -7 -8 -10 -15 -7
-15 4 0 0 -18 -8 -41 -8 -23 -12 -45 -9 -50 3 -5 1 -9 -5 -9 -6 0 -8 -7 -5
-15 4 -8 2 -15 -2 -15 -5 0 -10 -10 -11 -23 -2 -23 -10 -62 -13 -62 -2 0 -10
-35 -13 -60 -2 -12 -7 -26 -11 -33 -4 -7 -2 -12 6 -12 10 0 10 -2 -1 -9 -7 -5
-10 -14 -7 -20 4 -6 2 -11 -4 -11 -7 0 -10 -6 -7 -14 3 -8 2 -16 -4 -18 -12
-4 -21 -48 -9 -48 4 0 6 -9 3 -21 -4 -13 3 -29 21 -48 25 -26 51 -111 30 -99
-5 4 -10 -14 -12 -38 l-3 -45 1041 1 c644 1 1038 5 1035 11 -4 5 -2 9 4 9 5 0
11 10 13 22 2 12 10 23 18 25 13 4 13 3 0 -7 -12 -9 -12 -13 -2 -17 10 -4 10
-9 -3 -23 -15 -16 1 -17 315 -19 l330 -2 0 745 0 745 -32 5 c-18 3 -91 14
-163 25 -71 11 -159 26 -195 34 -36 8 -68 13 -72 10 -4 -2 -16 0 -25 5 -10 6
-45 13 -78 16 -79 8 -218 15 -182 9 37 -6 24 -23 -17 -23 -24 0 -43 -9 -70
-36 -20 -20 -35 -39 -32 -42 3 -3 -6 -11 -21 -19 -14 -7 -28 -11 -31 -9 -2 3
-13 1 -24 -5 -17 -9 -18 -7 -13 18 5 21 4 25 -4 13 -7 -10 -11 -11 -11 -2 0
19 -20 14 -20 -5 -1 -13 -5 -10 -16 10 -8 15 -19 25 -23 22 -5 -3 -12 2 -15
11 -3 9 -2 12 5 9 6 -4 9 4 7 21 -3 25 3 32 50 57 29 16 52 30 50 32 -2 2 -26
-1 -53 -6 -28 -5 -97 -10 -155 -10 -110 0 -106 -1 -314 71 -50 17 -94 29 -100
27 -5 -2 11 -9 37 -17 34 -9 56 -23 77 -50 32 -40 36 -50 20 -50 -6 0 -9 3 -8
8 5 15 -28 47 -62 60 -19 7 -80 24 -134 38 -55 14 -102 27 -105 30 -3 2 22 2
55 0 56 -5 56 -5 14 4 -25 5 -69 10 -97 10 -58 2 -62 8 -35 48 40 59 94 166
75 151 -27 -21 40 56 126 144 92 94 121 140 121 190 0 38 -34 87 -60 87 -14 0
-115 39 -236 91 -50 21 -100 39 -112 39 -33 0 -130 -118 -116 -142 5 -10 4
-10 -6 -1 -10 9 -18 6 -39 -13 -14 -13 -29 -24 -34 -24 -10 0 8 33 29 55 19
18 18 20 -13 29 -17 6 -23 3 -23 -8 0 -18 -35 -22 -45 -6 -3 5 0 7 8 4 18 -6
32 12 17 21 -7 5 -5 12 7 21 17 12 16 13 -7 14 -23 1 -24 2 -7 14 11 8 14 17
8 20 -5 4 -12 2 -16 -4 -10 -17 -25 -11 -25 10 0 11 6 20 13 20 7 0 8 3 2 8
-14 10 -37 63 -30 70 3 3 5 0 5 -6 0 -7 7 -12 15 -12 14 0 17 7 19 58 1 12 8
27 16 32 13 8 12 10 -2 10 -10 0 -18 -5 -18 -11 0 -6 -6 -9 -12 -6 -7 2 -12
11 -10 21 2 9 -2 16 -9 16 -8 0 -10 14 -6 43 3 23 3 34 0 24 -6 -22 -23 -12
-23 14 0 10 -5 19 -11 19 -8 0 -7 5 1 15 10 12 10 22 2 40 -7 15 -7 25 -1 27
6 2 4 17 -5 39 -8 20 -13 39 -10 42 8 7 -16 50 -33 60 -8 5 -11 16 -8 26 7 22
-34 46 -64 38 -24 -6 -29 8 -6 17 24 9 18 26 -9 26 -13 0 -26 5 -28 12 -3 7
-11 9 -24 4 -17 -8 -16 -10 11 -23 l30 -14 -29 6 c-103 22 -117 23 -112 9 3
-8 0 -11 -10 -7 -7 3 -14 9 -14 14 0 5 -13 9 -30 9 -16 0 -30 5 -30 11 0 8 -4
8 -14 0 -10 -9 -15 -8 -19 3 -4 9 -2 18 3 21 21 13 8 22 -27 21 -32 -1 -39 3
-41 20 -3 18 4 23 35 30 21 4 46 7 56 6 19 -2 22 9 7 24 -15 15 -2 42 22 50
11 3 17 12 14 20 -3 9 1 14 12 14 9 0 28 3 41 7 17 4 22 3 17 -5 -4 -7 -1 -12
7 -12 17 0 69 -54 60 -63 -3 -4 1 -7 10 -7 9 0 30 -13 47 -30 33 -32 64 -42
37 -12 -10 10 -17 24 -17 30 0 7 -9 12 -20 12 -15 0 -20 7 -20 28 0 15 -5 33
-12 40 -7 7 -8 12 -4 12 5 0 3 6 -3 14 -8 10 -9 16 -1 21 5 3 10 11 10 17 0 6
-10 4 -24 -5 -30 -20 -38 -13 -20 21 16 32 18 54 3 32 -8 -11 -9 -8 -4 14 6
26 4 28 -10 16 -22 -18 -44 2 -26 24 10 12 9 17 -8 28 -15 9 -21 23 -21 51 0
27 -7 44 -23 60 -13 12 -30 37 -38 55 -15 34 -25 40 -32 20 -2 -7 -3 -1 -1 14
2 20 -4 33 -23 48 -24 19 -63 27 -63 14z m195 -404 c3 -5 -1 -10 -9 -10 -9 0
-16 5 -16 10 0 6 4 10 9 10 6 0 13 -4 16 -10z m-207 -225 c-3 -3 -9 2 -12 12
-6 14 -5 15 5 6 7 -7 10 -15 7 -18z m233 -70 c1 -5 5 -16 11 -22 19 -24 2 -13
-23 13 -20 22 -21 26 -6 23 10 -2 18 -8 18 -14z m-251 -30 c0 -8 -4 -15 -10
-15 -5 0 -7 7 -4 15 4 8 8 15 10 15 2 0 4 -7 4 -15z m71 -27 c0 -7 4 -4 9 7 7
17 9 15 9 -12 1 -32 -11 -43 -24 -23 -4 6 -9 9 -13 7 -4 -2 -15 4 -24 15 -17
16 -15 22 5 19 4 0 7 6 7 15 0 14 2 14 15 0 8 -8 15 -21 16 -28z m-228 -214
c11 -11 67 -12 67 -2 0 5 5 6 11 3 22 -15 1 -29 -38 -27 -23 2 -44 -2 -48 -8
-5 -8 -11 -7 -23 2 -9 7 -13 8 -9 2 4 -7 -6 -10 -28 -9 -19 0 -35 -2 -35 -6 0
-4 -9 -5 -20 -2 -14 4 -26 -1 -35 -13 -13 -18 -14 -18 -24 9 -6 15 -15 27 -21
27 -6 0 -9 -4 -5 -9 3 -6 -2 -14 -10 -18 -9 -5 -20 -22 -25 -39 -8 -25 -9 -22
-7 21 l2 50 75 0 c41 0 81 4 88 8 7 5 24 6 38 3 14 -4 24 -2 24 4 0 11 13 13
23 4z m144 -10 c13 -12 13 -18 3 -27 -10 -9 -11 -9 -5 1 4 8 2 13 -6 11 -28
-3 -38 1 -33 16 8 19 21 19 41 -1z m96 1 c-3 -9 -8 -14 -10 -11 -3 3 -2 9 2
15 9 16 15 13 8 -4z m-386 -122 c-3 -10 -5 -4 -5 12 0 17 2 24 5 18 2 -7 2
-21 0 -30z m-37 12 c0 -8 -4 -15 -10 -15 -5 0 -10 7 -10 15 0 8 5 15 10 15 6
0 10 -7 10 -15z m90 -8 c0 -7 -9 -13 -20 -13 -25 0 -26 13 -2 19 9 3 18 5 20
6 1 0 2 -5 2 -12z m405 -7 c3 -5 -3 -10 -14 -10 -12 0 -21 5 -21 10 0 6 6 10
14 10 8 0 18 -4 21 -10z m349 -232 c-3 -5 -12 -4 -20 3 -19 16 -18 18 6 12 11
-3 17 -9 14 -15z m-1187 -30 c-3 -8 -6 -5 -6 6 -1 11 2 17 5 13 3 -3 4 -12 1
-19z m627 -114 c21 -8 20 -24 -1 -40 -17 -12 -17 -13 2 -20 11 -4 23 -12 27
-18 4 -6 10 -7 14 -3 4 3 2 12 -3 19 -6 7 -13 25 -15 41 -4 21 -1 27 13 27 10
0 23 -8 28 -19 9 -16 21 -18 78 -16 38 1 73 4 78 6 15 6 58 -28 50 -40 -3 -6
-2 -11 3 -11 6 0 13 12 16 26 8 29 43 30 38 1 -4 -22 17 -22 34 1 12 15 13 14
14 -10 0 -16 5 -28 12 -28 6 0 -6 -16 -28 -35 -21 -19 -43 -33 -49 -31 -5 2
-18 -3 -27 -11 -15 -14 -19 -13 -33 1 -15 15 -15 17 -1 32 9 8 15 23 15 32 -1
15 -2 15 -6 0 -5 -22 -23 -24 -23 -3 0 8 -8 15 -19 15 -14 0 -17 -6 -13 -25 3
-18 0 -25 -12 -25 -9 0 -16 4 -16 8 0 5 -25 7 -57 4 -48 -4 -55 -2 -50 11 4
11 -3 16 -26 20 -18 2 -35 0 -39 -6 -4 -7 -12 -7 -22 2 -14 11 -16 11 -16 -4
0 -17 -1 -17 -18 -2 -10 10 -27 17 -38 17 -19 1 -19 1 0 15 11 8 28 15 37 15
27 0 34 21 10 27 -23 6 -28 19 -8 26 18 8 33 8 51 1z m249 -1 c-7 -2 -19 -2
-25 0 -7 3 -2 5 12 5 14 0 19 -2 13 -5z m-653 -213 c0 -5 -4 -10 -10 -10 -5 0
-10 5 -10 10 0 6 5 10 10 10 6 0 10 -4 10 -10z m-103 -102 c-3 -8 -6 -5 -6 6
-1 11 2 17 5 13 3 -3 4 -12 1 -19z m60 -30 c-3 -8 -6 -5 -6 6 -1 11 2 17 5 13
3 -3 4 -12 1 -19z m-67 -28 c0 -5 -5 -10 -11 -10 -5 0 -7 5 -4 10 3 6 8 10 11
10 2 0 4 -4 4 -10z m150 -146 c0 -2 -11 -4 -25 -4 -14 0 -25 4 -25 9 0 4 11 6
25 3 14 -2 25 -6 25 -8z m1263 -132 c-6 -13 -8 -13 -14 4 -4 10 -8 26 -8 34 0
12 3 11 14 -3 7 -11 11 -26 8 -35z m-1226 -88 c-3 -3 -12 -4 -19 -1 -8 3 -5 6
6 6 11 1 17 -2 13 -5z m-572 -332 c-3 -3 -11 0 -18 7 -9 10 -8 11 6 5 10 -3
15 -9 12 -12z m1212 -2 c-1 -11 -7 -20 -14 -20 -16 0 -16 7 0 25 16 19 16 18
14 -5z m-33 -54 c-6 -15 -24 -23 -24 -11 0 8 24 34 28 30 1 -1 0 -10 -4 -19z
m-999 -55 c9 -23 1 -20 -24 11 -23 28 -23 29 -3 17 12 -8 24 -20 27 -28z m133
9 c-7 -10 -14 -17 -17 -15 -4 4 18 35 25 35 2 0 -1 -9 -8 -20z m32 -4 c0 -2
-8 -10 -17 -17 -16 -13 -17 -12 -4 4 13 16 21 21 21 13z m795 -6 c3 -5 1 -10
-4 -10 -6 0 -11 5 -11 10 0 6 2 10 4 10 3 0 8 -4 11 -10z m-775 -14 c0 -2 -8
-10 -17 -17 -16 -13 -17 -12 -4 4 13 16 21 21 21 13z m10 -30 c0 -2 -8 -10
-17 -17 -16 -13 -17 -12 -4 4 13 16 21 21 21 13z m30 -51 c-7 -9 -15 -13 -19
-10 -3 3 1 10 9 15 21 14 24 12 10 -5z m20 -20 c-7 -8 -17 -15 -23 -15 -6 0
-2 7 9 15 25 19 30 19 14 0z m650 -30 c0 -5 -4 -4 -9 4 -6 9 -11 10 -15 2 -8
-13 -26 -5 -26 11 0 5 7 8 15 4 8 -3 15 0 15 7 0 8 4 6 10 -3 5 -8 10 -19 10
-25z m-60 10 c0 -8 -2 -15 -4 -15 -2 0 -6 7 -10 15 -3 8 -1 15 4 15 6 0 10 -7
10 -15z m-580 -10 c-7 -9 -15 -13 -19 -10 -3 3 1 10 9 15 21 14 24 12 10 -5z
m-185 -15 c3 -5 1 -10 -4 -10 -6 0 -11 5 -11 10 0 6 2 10 4 10 3 0 8 -4 11
-10z m195 -10 c0 -5 -5 -10 -11 -10 -5 0 -7 5 -4 10 3 6 8 10 11 10 2 0 4 -4
4 -10z m30 -9 c0 -5 -7 -12 -16 -15 -14 -5 -15 -4 -4 9 14 17 20 19 20 6z m10
-31 c-24 -15 -36 -11 -14 4 10 8 21 12 24 10 2 -3 -2 -9 -10 -14z m-230 -10
c0 -5 -4 -10 -10 -10 -5 0 -10 5 -10 10 0 6 5 10 10 10 6 0 10 -4 10 -10z
m240 -15 c-7 -9 -15 -13 -19 -10 -3 3 1 10 9 15 21 14 24 12 10 -5z m70 -5 c0
-5 -5 -10 -11 -10 -5 0 -7 5 -4 10 3 6 8 10 11 10 2 0 4 -4 4 -10z m-50 -15
c-7 -8 -18 -15 -24 -15 -6 0 -2 7 8 15 25 19 32 19 16 0z m9 -31 c-12 -15 -11
-16 11 -10 24 7 24 6 6 -8 -14 -11 -21 -12 -31 -3 -14 13 -2 37 17 37 6 0 4
-7 -3 -16z m25 -50 c-18 -15 -18 -15 4 -11 19 5 21 3 11 -9 -15 -18 -25 -18
-33 2 -4 10 1 22 11 29 25 18 31 8 7 -11z m22 -49 c-11 -8 -22 -12 -25 -9 -6
6 19 24 34 24 6 -1 1 -7 -9 -15z m-194 -7 c-17 -17 -15 -38 5 -62 10 -12 14
-18 9 -14 -5 4 -16 2 -25 -5 -14 -10 -14 -10 -3 5 11 14 10 18 -7 30 l-21 15
21 21 c11 12 23 22 26 22 4 0 2 -5 -5 -12z m212 -13 c-10 -8 -23 -14 -29 -14
-5 0 -1 6 9 14 11 8 24 15 30 15 5 0 1 -7 -10 -15z m6 -30 c-14 -17 -30 -20
-30 -6 0 5 8 12 18 14 9 3 19 5 21 6 2 0 -2 -6 -9 -14z m10 -25 c-20 -13 -33
-13 -25 0 3 6 14 10 23 10 15 0 15 -2 2 -10z m29 -14 c-15 -13 -49 -25 -49
-17 0 5 8 12 18 14 24 6 36 8 31 3z m-9 -41 c-26 -14 -36 -13 -27 2 3 5 16 9
29 10 l23 2 -25 -14z m339 -11 c-7 -8 -6 -14 1 -17 6 -3 6 -5 -1 -3 -17 3 -20
33 -3 33 10 0 11 -4 3 -13z m-329 -14 c-20 -13 -43 -13 -35 0 3 6 16 10 28 10
18 0 19 -2 7 -10z m6 -25 c-11 -8 -25 -15 -30 -15 -6 0 -2 7 8 15 11 8 25 15
30 15 6 0 2 -7 -8 -15z m8 -30 c-18 -14 -18 -14 1 -15 17 0 17 -2 5 -10 -19
-12 -33 -13 -25 -1 3 5 1 12 -5 16 -15 9 -5 20 20 22 21 2 22 1 4 -12z m306
-9 c0 -3 -4 -8 -10 -11 -5 -3 -10 -1 -10 4 0 6 5 11 10 11 6 0 10 -2 10 -4z
m-290 -40 c-16 -16 -12 -29 6 -22 14 5 15 4 4 -9 -11 -13 -9 -15 11 -16 17 -1
19 -3 7 -6 -21 -5 -24 -23 -5 -23 17 0 -14 -20 -32 -20 -11 0 -11 3 0 17 8 10
9 14 2 10 -6 -4 -14 -3 -18 3 -3 5 -1 10 4 10 6 0 11 5 11 11 0 5 -5 7 -12 3
-8 -5 -9 -2 -5 9 4 10 2 17 -5 17 -7 0 -7 4 1 13 6 8 18 14 26 14 11 0 12 -4
5 -11z m-197 -127 c4 -16 3 -18 -9 -8 -16 13 -19 29 -5 29 5 0 11 -9 14 -21z
m237 17 c0 -2 -11 -6 -25 -8 -14 -3 -25 -1 -25 3 0 5 11 9 25 9 14 0 25 -2 25
-4z m-12 -25 c10 -6 9 -10 -7 -14 -21 -5 -36 5 -24 17 8 8 15 7 31 -3z m2 -31
c0 -5 -8 -10 -17 -10 -15 0 -16 2 -3 10 19 12 20 12 20 0z m2260 -5 c-10 -12
-10 -15 0 -15 8 0 11 -3 7 -6 -3 -3 -11 -3 -17 1 -8 5 -8 11 1 21 6 8 14 14
16 14 3 0 0 -7 -7 -15z m-2255 -25 c3 -6 -4 -10 -17 -10 -18 0 -20 2 -8 10 19
12 18 12 25 0z m2276 -23 c-10 -9 -11 -8 -5 6 3 10 9 15 12 12 3 -3 0 -11 -7
-18z m-2081 -1 c0 -3 -4 -8 -10 -11 -5 -3 -10 -1 -10 4 0 6 5 11 10 11 6 0 10
-2 10 -4z m2170 -20 c0 -2 -7 -7 -16 -10 -8 -3 -12 -2 -9 4 6 10 25 14 25 6z
m-135 -25 c-3 -6 -11 -11 -16 -11 -5 0 -4 6 3 14 14 16 24 13 13 -3z m66 2
c13 -16 12 -17 -3 -4 -17 13 -22 21 -14 21 2 0 10 -8 17 -17z m-2524 -35 c-3
-8 -6 -5 -6 6 -1 11 2 17 5 13 3 -3 4 -12 1 -19z m2453 -5 c0 -3 -6 -3 -14 0
-7 3 -19 0 -25 -6 -8 -8 -11 -8 -11 0 0 6 6 13 13 16 13 4 37 -2 37 -10z m95
7 c-3 -5 -12 -10 -18 -10 -7 0 -6 4 3 10 19 12 23 12 15 0z m-45 -21 c0 -4
-11 -6 -24 -5 -13 0 -22 4 -20 8 6 9 44 6 44 -3z m77 5 c-3 -3 -12 -4 -19 -1
-8 3 -5 6 6 6 11 1 17 -2 13 -5z m-60 -36 c2 -16 0 -19 -6 -9 -13 20 -24 -5
-12 -27 6 -12 6 -23 -1 -33 -8 -12 -9 -11 -5 2 7 21 -8 43 -22 35 -6 -4 -11
-12 -11 -17 0 -6 5 -7 12 -3 6 4 8 3 4 -4 -3 -6 -20 -10 -37 -10 -19 1 -25 4
-18 9 7 4 17 5 21 3 4 -3 8 4 8 16 0 12 4 19 9 16 4 -3 19 6 31 19 13 14 24
25 25 25 0 0 2 -10 2 -22z m79 -3 c-11 -8 -25 -15 -30 -15 -6 1 0 7 14 15 32
19 40 18 16 0z m-2589 -37 c-3 -8 -6 -5 -6 6 -1 11 2 17 5 13 3 -3 4 -12 1
-19z m2419 13 c8 7 14 7 14 1 0 -12 -29 -24 -41 -16 -5 3 -6 10 -2 17 5 8 8 8
11 -1 3 -10 7 -10 18 -1z m134 -6 c0 -2 -9 -3 -19 -2 -11 0 -18 5 -15 9 4 6
34 0 34 -7z m40 11 c0 -2 -8 -10 -17 -17 -16 -13 -17 -12 -4 4 13 16 21 21 21
13z m0 -31 c-7 -8 -17 -15 -23 -15 -6 0 -2 7 9 15 25 19 30 19 14 0z m-173
-41 c-3 -3 -12 -4 -19 -1 -8 3 -5 6 6 6 11 1 17 -2 13 -5z m38 -15 c-4 -5 -13
-9 -21 -9 -9 0 -12 -5 -8 -12 4 -7 3 -8 -4 -4 -17 10 -15 26 3 26 8 0 15 5 15
11 0 5 5 7 10 4 6 -4 8 -11 5 -16z m105 15 c0 -8 -19 -13 -24 -6 -3 5 1 9 9 9
8 0 15 -2 15 -3z m-170 -18 c0 -2 -9 -6 -20 -9 -11 -3 -18 -1 -14 4 5 9 34 13
34 5z m150 -16 c0 -5 -8 -10 -17 -10 -15 0 -16 2 -3 10 19 12 20 12 20 0z"/>
<path d="M3865 2260 c3 -5 10 -10 16 -10 5 0 9 5 9 10 0 6 -7 10 -16 10 -8 0
-12 -4 -9 -10z"/>
<path d="M2916 3541 c1 -31 -1 -42 -3 -24 -2 17 -11 34 -19 37 -11 4 -13 0 -7
-22 6 -25 5 -26 -12 -12 -10 8 -16 10 -12 4 12 -20 -5 -76 -24 -81 -19 -5 -20
-46 -2 -64 15 -15 66 29 60 52 -3 11 -2 17 2 14 12 -6 29 34 34 80 3 22 8 48
12 57 5 12 2 17 -12 15 -16 -1 -19 -9 -17 -56z"/>
<path d="M2011 3554 c0 -11 3 -14 6 -6 3 7 2 16 -1 19 -3 4 -6 -2 -5 -13z"/>
<path d="M4843 3408 c-14 -17 -23 -58 -14 -58 7 0 16 15 39 63 6 12 -15 8 -25
-5z"/>
<path d="M2800 3346 c0 -6 4 -18 10 -26 7 -12 10 -11 16 5 4 11 12 23 17 26 5
4 -3 7 -17 7 -14 0 -26 -6 -26 -12z"/>
<path d="M4088 3353 c6 -2 18 -2 25 0 6 3 1 5 -13 5 -14 0 -19 -2 -12 -5z"/>
<path d="M3756 3215 c-3 -9 0 -15 9 -15 16 0 20 16 6 24 -5 3 -11 -1 -15 -9z"/>
<path d="M4066 3162 c-3 -5 1 -9 9 -9 8 0 12 4 9 9 -3 4 -7 8 -9 8 -2 0 -6 -4
-9 -8z"/>
<path d="M4224 3139 c-7 -12 15 -41 27 -33 14 8 11 31 -6 37 -8 4 -17 2 -21
-4z"/>
<path d="M4320 3074 c0 -8 5 -12 10 -9 6 4 8 11 5 16 -9 14 -15 11 -15 -7z"/>
<path d="M4165 3040 c3 -5 8 -10 11 -10 2 0 4 5 4 10 0 6 -5 10 -11 10 -5 0
-7 -4 -4 -10z"/>
<path d="M4278 3043 c6 -2 18 -2 25 0 6 3 1 5 -13 5 -14 0 -19 -2 -12 -5z"/>
<path d="M2702 2910 c-9 -15 -9 -21 1 -26 6 -4 9 -4 5 1 -4 4 -3 14 4 22 6 7
9 15 7 18 -3 2 -10 -4 -17 -15z"/>
<path d="M2746 2915 c-3 -8 -1 -15 4 -15 6 0 10 7 10 15 0 8 -2 15 -4 15 -2 0
-6 -7 -10 -15z"/>
<path d="M3181 2774 c0 -11 3 -14 6 -6 3 7 2 16 -1 19 -3 4 -6 -2 -5 -13z"/>
<path d="M4260 2759 c0 -5 5 -7 10 -4 6 3 10 8 10 11 0 2 -4 4 -10 4 -5 0 -10
-5 -10 -11z"/>
<path d="M4260 2720 c-9 -6 -10 -10 -3 -10 6 0 15 5 18 10 8 12 4 12 -15 0z"/>
<path d="M3336 2281 c-19 -21 -12 -28 13 -12 7 5 12 14 9 21 -2 7 -10 4 -22
-9z"/>
<path d="M3100 2110 c-9 -6 -10 -10 -3 -10 6 0 15 5 18 10 8 12 4 12 -15 0z"/>
<path d="M3150 2104 l-25 -14 33 0 c22 0 32 5 32 15 0 18 -7 18 -40 -1z"/>
<path d="M3097 2064 c-8 -8 1 -24 12 -24 4 0 8 7 8 15 0 16 -9 20 -20 9z"/>
<path d="M3015 1957 c-4 -10 -5 -21 -1 -24 10 -10 18 4 13 24 -4 17 -4 17 -12
0z"/>
<path d="M3018 1913 c7 -3 16 -2 19 1 4 3 -2 6 -13 5 -11 0 -14 -3 -6 -6z"/>
<path d="M1950 1855 c-1 -11 -3 -28 -5 -37 -2 -10 1 -18 6 -18 4 0 6 -8 2 -17
-4 -12 -3 -15 4 -8 7 6 8 27 3 55 -4 25 -8 36 -10 25z"/>
<path d="M4701 1804 c0 -11 3 -14 6 -6 3 7 2 16 -1 19 -3 4 -6 -2 -5 -13z"/>
<path d="M4791 1764 c0 -11 3 -14 6 -6 3 7 2 16 -1 19 -3 4 -6 -2 -5 -13z"/>
<path d="M4830 1752 c0 -7 -10 -13 -22 -13 -19 -1 -20 -2 -4 -6 20 -5 44 12
33 24 -4 3 -7 1 -7 -5z"/>
<path d="M2973 1633 c9 -2 25 -2 35 0 9 3 1 5 -18 5 -19 0 -27 -2 -17 -5z"/>
<path d="M3105 1610 c-3 -5 -1 -10 4 -10 6 0 11 5 11 10 0 6 -2 10 -4 10 -3 0
-8 -4 -11 -10z"/>
<path d="M3200 1590 c0 -5 7 -7 15 -4 8 4 15 8 15 10 0 2 -7 4 -15 4 -8 0 -15
-4 -15 -10z"/>
<path d="M3240 1580 c0 -5 7 -10 15 -10 8 0 15 5 15 10 0 6 -7 10 -15 10 -8 0
-15 -4 -15 -10z"/>
<path d="M2287 1503 c-4 -3 -7 -11 -7 -17 0 -6 5 -5 12 2 6 6 9 14 7 17 -3 3
-9 2 -12 -2z"/>
<path d="M2251 1484 c0 -11 3 -14 6 -6 3 7 2 16 -1 19 -3 4 -6 -2 -5 -13z"/>
<path d="M2265 1453 c-5 -12 -9 -14 -12 -5 -6 17 -20 15 -20 -3 0 -8 4 -12 9
-9 4 3 8 -3 8 -13 1 -13 5 -10 16 10 9 16 14 31 11 33 -2 3 -8 -3 -12 -13z"/>
<path d="M2325 1460 c-3 -6 1 -7 9 -4 18 7 21 14 7 14 -6 0 -13 -4 -16 -10z"/>
<path d="M2145 1439 c-4 -6 -5 -12 -2 -15 2 -3 7 2 10 11 7 17 1 20 -8 4z"/>
<path d="M2385 1430 c-3 -5 -1 -10 4 -10 6 0 11 5 11 10 0 6 -2 10 -4 10 -3 0
-8 -4 -11 -10z"/>
<path d="M2412 1410 c0 -14 2 -19 5 -12 2 6 2 18 0 25 -3 6 -5 1 -5 -13z"/>
<path d="M2053 1390 c-8 -21 -8 -30 0 -30 5 0 7 -3 4 -6 -4 -4 -13 -1 -22 6
-12 10 -16 9 -21 -5 -6 -13 -9 -14 -16 -3 -6 9 -7 6 -3 -9 4 -14 2 -23 -4 -23
-6 0 -11 7 -11 15 0 25 -32 14 -43 -15 -3 -10 -6 -7 -6 9 l-1 23 -20 -23 -20
-24 10 28 c9 26 8 27 -11 17 -14 -8 -18 -17 -14 -33 5 -16 4 -18 -3 -8 -5 7
-15 10 -21 7 -6 -4 -11 0 -12 11 0 15 -2 15 -7 3 -4 -9 -14 -15 -22 -15 -8 1
-31 -9 -51 -21 -39 -24 -61 -21 -31 3 9 8 0 5 -21 -6 -48 -26 -56 -27 -26 -2
l24 20 -45 -10 c-25 -6 -88 -11 -142 -12 -53 -1 -91 -5 -85 -9 12 -8 -11 -9
-174 -12 -70 -1 -85 -4 -81 -15 3 -9 1 -12 -6 -7 -7 4 -12 14 -12 23 0 12 -6
14 -27 8 -15 -3 -30 -11 -34 -16 -3 -5 -14 -7 -25 -3 -15 5 -16 4 -4 -5 8 -5
12 -13 8 -16 -8 -9 -112 -24 -121 -18 -5 3 -4 -3 1 -13 9 -17 5 -19 -41 -22
-29 -2 -54 -7 -57 -12 -3 -5 -25 -7 -49 -4 -25 3 -48 0 -56 -6 -8 -7 -19 -9
-25 -5 -5 3 -10 2 -10 -3 0 -4 -8 -17 -18 -28 -24 -25 -35 -77 -16 -70 17 6
19 -10 3 -20 -6 -3 -9 -15 -6 -25 3 -11 2 -17 -3 -14 -4 3 -10 -4 -13 -14 -3
-15 0 -17 16 -13 21 5 21 5 -1 -23 -12 -15 -22 -33 -22 -39 0 -6 4 -4 10 4 16
26 21 4 5 -26 -16 -32 -20 -58 -7 -50 5 3 9 -33 8 -80 -1 -47 2 -88 7 -91 4
-2 -2 -16 -14 -31 -13 -17 -16 -28 -9 -30 7 -3 6 -12 -6 -29 -9 -14 -11 -22
-4 -18 8 5 10 -2 7 -24 -3 -17 -1 -29 4 -25 12 7 11 -1 -5 -63 -10 -38 -11
-53 -2 -57 6 -2 3 -5 -6 -5 -10 -1 -18 -6 -18 -12 0 -5 4 -7 10 -4 5 3 10 -3
10 -14 0 -11 -4 -22 -8 -25 -4 -2 -9 -19 -10 -37 -3 -39 -10 -51 -24 -43 -7 4
-8 2 -4 -4 4 -7 14 -12 23 -12 14 0 13 -4 -5 -23 -23 -24 -19 -45 5 -26 8 7
13 8 13 1 0 -5 -8 -13 -17 -16 -12 -5 -14 -9 -6 -14 9 -6 8 -15 -4 -37 -9 -17
-17 -49 -18 -72 l-2 -43 1009 0 1008 0 1 23 c1 20 1 21 7 2 8 -22 52 -34 52
-14 0 7 -8 21 -17 32 -17 18 -26 80 -10 70 4 -2 7 -13 7 -23 0 -11 9 -24 20
-30 11 -6 20 -19 20 -30 0 -10 5 -22 11 -26 9 -5 10 3 5 29 -5 24 -3 37 6 40
7 3 3 6 -8 6 -12 1 -25 8 -28 17 -5 13 -1 14 24 9 23 -5 30 -3 30 9 0 9 -6 13
-15 10 -10 -4 -18 3 -25 20 -12 33 -7 89 9 94 6 2 15 12 21 21 8 15 6 17 -15
13 -37 -7 -30 12 10 26 25 10 33 17 29 30 -3 9 2 6 10 -8 15 -24 15 -24 16 -3
0 12 -4 25 -10 28 -5 3 -10 19 -10 35 0 16 -4 31 -9 34 -16 10 -21 67 -7 93
13 25 13 25 19 4 3 -11 1 -19 -4 -15 -5 3 -9 -7 -9 -23 0 -23 2 -25 11 -13 8
11 9 8 5 -15 -5 -23 -4 -27 5 -15 8 12 10 10 5 -10 -3 -14 -1 -32 4 -40 15
-23 12 31 -6 135 -15 88 -29 129 -23 70 2 -16 -1 -38 -6 -47 -7 -12 -10 7 -10
62 0 49 4 76 10 72 6 -3 4 1 -3 10 -7 9 -11 21 -10 28 2 7 -4 15 -12 17 -13 4
-13 3 0 -6 8 -6 10 -11 5 -11 -6 0 -10 -18 -10 -39 0 -22 3 -37 7 -35 5 3 8
-4 8 -15 0 -29 -17 -35 -24 -8 -9 36 -7 127 4 127 13 0 13 33 1 46 -6 5 -11
21 -13 36 -7 48 -16 40 -16 -14 -1 -110 -5 -153 -12 -133 -4 11 -5 38 -2 61 2
23 -1 51 -8 64 -10 18 -9 24 1 31 8 5 10 9 6 9 -4 0 -3 9 3 20 6 11 15 18 21
15 5 -4 9 -1 9 4 0 6 -4 11 -10 11 -5 0 -11 10 -11 23 -1 15 -4 10 -9 -13 l-7
-35 -2 32 c0 17 -4 39 -8 49 -4 12 -3 15 5 10 14 -8 14 0 2 29 -8 19 -9 18
-11 -5 -1 -14 -1 -42 0 -62 2 -24 -3 -44 -14 -54 -18 -19 -14 -72 7 -85 10 -7
9 -9 -4 -9 -22 0 -24 -17 -3 -23 11 -4 11 -5 -2 -3 -25 2 -39 78 -24 134 12
47 15 119 3 89 -6 -13 -12 -4 -25 34 -10 28 -20 49 -23 46 -2 -2 2 -22 10 -45
11 -30 12 -43 4 -48 -6 -4 -9 -3 -6 2 3 5 0 15 -8 22 -12 10 -14 10 -14 -2 0
-20 21 -66 31 -66 7 0 3 -89 -5 -97 -2 -2 -6 23 -10 56 -4 33 -11 61 -15 63
-9 3 -23 99 -22 150 0 15 -4 30 -9 33 -6 4 -8 -14 -6 -44 3 -31 1 -51 -6 -51
-5 0 -7 -7 -4 -16 3 -8 2 -12 -4 -9 -6 3 -10 -1 -10 -9 0 -8 -4 -17 -9 -20 -8
-5 -11 21 -12 86 0 27 -19 32 -20 6 -3 -150 -4 -180 -1 -165 2 9 8 17 13 17
11 0 11 -38 -1 -65 -8 -19 -9 -19 -9 4 -1 16 -5 21 -16 17 -17 -6 -19 7 -5 34
7 14 5 24 -10 42 l-19 23 4 -32 c2 -18 0 -33 -5 -33 -10 0 -5 -133 5 -150 3
-6 3 -10 0 -10 -10 0 -35 67 -35 94 0 14 -4 28 -10 31 -5 3 -9 -2 -8 -12 1
-10 -3 -44 -10 -75 -16 -69 -37 -79 -30 -15 4 32 2 44 -8 44 -7 0 -13 -7 -12
-16 3 -43 -3 -72 -13 -65 -8 5 -10 -1 -7 -20 4 -18 1 -26 -8 -26 -17 0 -17 -1
1 49 10 29 12 53 6 83 -8 38 -9 40 -11 13 -1 -16 -2 -38 -1 -47 2 -13 -5 -18
-20 -18 -18 0 -20 3 -11 12 7 7 12 21 12 32 -1 20 -1 20 -13 -2 -7 -12 -16
-20 -20 -16 -4 4 -4 -17 -1 -47 3 -30 2 -51 -2 -46 -7 7 -12 31 -13 75 -1 13
-5 21 -10 17 -6 -3 -13 16 -17 41 -5 36 -9 43 -16 30 -5 -9 -6 -21 -3 -27 4
-5 1 -16 -5 -24 -6 -8 -9 -19 -5 -25 4 -6 0 -32 -9 -58 -8 -26 -18 -60 -21
-76 -3 -15 -9 -26 -12 -22 -3 3 1 34 10 68 9 35 19 86 22 113 3 28 7 64 9 81
2 17 8 40 13 50 6 10 13 39 16 64 5 44 5 44 -14 -14 -20 -63 -34 -88 -25 -46
2 14 8 54 11 90 5 50 4 62 -6 53 -6 -6 -13 -24 -15 -40 -2 -15 -8 -41 -14 -58
l-10 -30 4 30 c2 17 1 39 -3 49 -7 18 -8 18 -14 2 -4 -10 -4 -23 0 -28 3 -7 1
-8 -5 -4 -8 5 -10 -3 -5 -26 3 -18 3 -30 -1 -27 -4 4 -8 31 -10 62 -2 43 0 54
11 50 7 -3 13 1 13 8 0 11 2 11 10 -1 11 -18 7 56 -4 83 -10 22 -28 23 -19 0
4 -11 3 -14 -6 -9 -7 5 -10 23 -8 47 2 21 0 39 -5 39 -13 0 -3 69 12 84 9 8
10 4 5 -19 l-6 -30 15 33 c9 18 20 31 26 27 5 -3 10 1 10 9 0 21 -10 20 -27
-1 -12 -16 -13 -13 -7 27 3 24 8 48 10 52 3 5 1 8 -3 8 -5 0 -14 -13 -20 -30z
m-33 -85 c0 -14 -4 -25 -9 -25 -4 0 -6 11 -3 25 2 14 6 25 8 25 2 0 4 -11 4
-25z m-430 -40 c0 -7 -30 -13 -34 -7 -3 4 4 9 15 9 10 1 19 0 19 -2z m-460
-15 c0 -5 -5 -10 -11 -10 -5 0 -7 5 -4 10 3 6 8 10 11 10 2 0 4 -4 4 -10z
m877 -12 c-3 -8 -6 -5 -6 6 -1 11 2 17 5 13 3 -3 4 -12 1 -19z m-492 -6 c-3
-3 -11 0 -18 7 -9 10 -8 11 6 5 10 -3 15 -9 12 -12z m515 -21 c0 -5 -9 -19
-21 -32 -19 -23 -20 -23 -10 -2 14 27 14 36 1 28 -5 -3 -10 -1 -10 4 0 6 9 11
20 11 11 0 20 -4 20 -9z m-1025 -11 c-3 -5 -10 -10 -16 -10 -5 0 -9 5 -9 10 0
6 7 10 16 10 8 0 12 -4 9 -10z m419 -8 c3 -5 -1 -9 -9 -9 -8 0 -12 4 -9 9 3 4
7 8 9 8 2 0 6 -4 9 -8z m63 -18 c-3 -3 -12 -4 -19 -1 -8 3 -5 6 6 6 11 1 17
-2 13 -5z m-530 -10 c-3 -3 -12 -4 -19 -1 -8 3 -5 6 6 6 11 1 17 -2 13 -5z
m1073 -23 c0 -6 -4 -13 -10 -16 -5 -3 -10 1 -10 9 0 9 5 16 10 16 6 0 10 -4
10 -9z m35 -40 c-6 -5 -25 10 -25 20 0 5 6 4 14 -3 8 -7 12 -15 11 -17z m42
-133 c-3 -8 -6 -5 -6 6 -1 11 2 17 5 13 3 -3 4 -12 1 -19z m-18 -62 c-9 -8
-10 -7 -5 7 3 10 7 24 7 30 1 7 3 4 6 -7 3 -10 -1 -23 -8 -30z m373 22 c-7 -7
-12 -8 -12 -2 0 14 12 26 19 19 2 -3 -1 -11 -7 -17z m58 4 c0 -5 -7 -17 -15
-28 -14 -18 -14 -17 -4 9 12 27 19 34 19 19z m122 -84 c-7 -7 -12 -8 -12 -2 0
14 12 26 19 19 2 -3 -1 -11 -7 -17z m-570 -66 c-5 -1 -8 -17 -6 -35 3 -20 1
-27 -5 -19 -13 22 -23 16 -43 -24 -14 -29 -15 -40 -6 -46 10 -6 10 -8 0 -8
-20 0 -24 24 -8 55 8 16 13 32 10 36 -2 4 5 6 16 4 14 -3 20 1 20 15 0 10 5
22 10 25 6 3 11 18 11 33 2 26 2 26 6 -3 3 -16 0 -31 -5 -33z m452 28 c-6 -6
-10 -3 -10 10 0 13 4 16 10 10 7 -7 7 -13 0 -20z m-83 -90 c-4 -44 -6 -49 -10
-26 -8 41 0 140 8 106 4 -14 5 -50 2 -80z m-85 12 c-11 -10 -14 3 -7 38 l6 35
3 -33 c2 -19 1 -36 -2 -40z m-200 -2 c0 -11 -4 -20 -8 -20 -10 0 -11 24 -1 33
9 9 9 10 9 -13z m76 -2 c-6 -6 -15 -8 -19 -4 -4 4 -1 11 7 16 19 12 27 3 12
-12z m347 -47 l-2 -46 -6 45 c-4 25 -11 52 -16 60 -8 13 -7 13 8 1 12 -9 17
-27 16 -60z m58 7 c-3 -7 -5 -2 -5 12 0 14 2 19 5 13 2 -7 2 -19 0 -25z
m-1932 12 c3 -6 -1 -7 -9 -4 -18 7 -21 14 -7 14 6 0 13 -4 16 -10z m1351 -5
c-3 -8 -1 -15 4 -15 5 0 7 -7 3 -16 -5 -14 -7 -14 -15 -1 -8 14 -2 47 9 47 3
0 3 -7 -1 -15z m154 -32 c-11 -17 -11 -17 -6 0 3 10 6 24 7 30 0 9 2 9 5 0 3
-7 0 -20 -6 -30z m127 30 c-4 -3 -1 -13 6 -22 11 -14 10 -14 -5 -2 -16 12 -16
31 -1 31 4 0 3 -3 0 -7z m-81 -51 c-18 -16 -18 -16 -6 6 6 13 14 21 18 18 3
-4 -2 -14 -12 -24z m341 -4 c-3 -8 -6 -5 -6 6 -1 11 2 17 5 13 3 -3 4 -12 1
-19z m45 -30 c-6 -6 -7 0 -4 19 5 21 7 23 10 9 2 -10 0 -22 -6 -28z m47 -20
c1 -5 -3 -8 -9 -8 -5 0 -10 12 -9 28 0 24 1 25 9 7 5 -11 9 -23 9 -27z m-728
-5 c-12 -20 -14 -14 -5 12 4 9 9 14 11 11 3 -2 0 -13 -6 -23z m-1276 -13 c-3
-5 -12 -10 -18 -10 -7 0 -6 4 3 10 19 12 23 12 15 0z m2012 -14 c-3 -8 -1 -17
6 -20 7 -2 4 -5 -5 -5 -18 -1 -24 19 -11 32 11 11 15 8 10 -7z m-569 -27 c-3
-8 -7 -3 -11 10 -4 17 -3 21 5 13 5 -5 8 -16 6 -23z m567 -58 c-1 -55 -10 -59
-12 -5 -1 24 2 44 6 44 3 0 6 -18 6 -39z m25 -57 c-1 -4 4 -11 12 -15 11 -7
11 -9 -1 -9 -10 0 -11 -3 -2 -14 6 -7 9 -21 5 -30 -12 -31 -20 -15 -21 42 -1
31 1 51 4 45 2 -7 4 -15 3 -19z m-117 1 c-3 -9 -8 -14 -10 -11 -3 3 -2 9 2 15
9 16 15 13 8 -4z m72 -58 c-4 -14 -13 -31 -21 -38 -10 -8 -10 -3 2 20 9 18 13
39 9 49 -4 12 -3 14 5 6 6 -6 8 -22 5 -37z m46 -37 c7 0 10 -2 7 -5 -11 -12
-38 9 -37 29 0 21 0 21 9 -1 5 -13 15 -23 21 -23z m-48 -76 c-7 -3 -10 -11 -7
-19 3 -7 1 -16 -5 -20 -6 -3 -11 2 -11 13 0 21 8 32 24 31 7 0 6 -2 -1 -5z
m-33 -26 c0 -6 -6 -5 -15 2 -8 7 -15 14 -15 16 0 2 7 1 15 -2 8 -4 15 -11 15
-16z m-20 -18 c0 -5 -4 -10 -10 -10 -5 0 -10 5 -10 10 0 6 5 10 10 10 6 0 10
-4 10 -10z m37 -26 c-3 -3 -12 -4 -19 -1 -8 3 -5 6 6 6 11 1 17 -2 13 -5z m9
-41 c-10 -10 -19 5 -10 18 6 11 8 11 12 0 2 -7 1 -15 -2 -18z"/>
<path d="M2107 1396 c-10 -26 -8 -43 3 -26 9 13 11 13 20 0 7 -12 10 -8 10 15
0 21 -3 26 -9 16 -7 -11 -9 -11 -13 0 -3 9 -6 8 -11 -5z"/>
<path d="M2378 1385 c6 -36 19 -40 14 -4 -2 16 -8 29 -12 29 -4 0 -5 -11 -2
-25z"/>
<path d="M2290 1389 c0 -5 5 -7 10 -4 6 3 10 8 10 11 0 2 -4 4 -10 4 -5 0 -10
-5 -10 -11z"/>
<path d="M2339 1377 c-2 -18 -5 -35 -8 -39 -8 -10 -10 -52 -3 -65 6 -10 11 5
15 48 4 34 5 65 2 67 -3 3 -6 -2 -6 -11z"/>
<path d="M2288 1283 c-5 -43 0 -73 13 -73 5 0 9 7 9 15 0 8 -4 15 -10 15 -5 0
-10 5 -10 11 0 6 6 9 14 6 12 -5 13 0 4 26 -15 43 -15 43 -20 0z"/>
<path d="M2250 1279 c0 -11 4 -18 10 -14 5 3 7 12 3 20 -7 21 -13 19 -13 -6z"/>
<path d="M2207 1263 c-14 -28 -12 -63 2 -63 5 0 6 11 4 24 -3 13 0 33 6 45 7
11 9 21 7 21 -3 0 -12 -12 -19 -27z"/>
<path d="M2361 1274 c0 -11 3 -14 6 -6 3 7 2 16 -1 19 -3 4 -6 -2 -5 -13z"/>
<path d="M2431 1264 c0 -11 3 -14 6 -6 3 7 2 16 -1 19 -3 4 -6 -2 -5 -13z"/>
<path d="M2080 1262 c0 -7 -10 -13 -22 -13 -19 -1 -20 -2 -4 -6 20 -5 44 12
33 24 -4 3 -7 1 -7 -5z"/>
<path d="M2157 1243 c-4 -3 -7 -11 -7 -17 0 -6 5 -5 12 2 6 6 9 14 7 17 -3 3
-9 2 -12 -2z"/>
<path d="M918 1223 c7 -3 16 -2 19 1 4 3 -2 6 -13 5 -11 0 -14 -3 -6 -6z"/>
<path d="M2060 1218 c0 -7 4 -19 9 -27 6 -9 9 -5 9 13 0 14 -4 26 -9 26 -5 0
-9 -6 -9 -12z"/>
<path d="M2336 1221 c-4 -7 -5 -15 -2 -18 9 -9 19 4 14 18 -4 11 -6 11 -12 0z"/>
<path d="M2250 1204 c0 -8 5 -12 10 -9 6 4 8 11 5 16 -9 14 -15 11 -15 -7z"/>
<path d="M2122 1178 c-16 -31 -23 -78 -11 -78 5 0 9 16 9 36 0 30 3 34 14 25
11 -9 12 -6 8 14 -5 30 -6 31 -20 3z"/>
<path d="M2086 1173 c-4 -9 -1 -21 5 -27 9 -8 10 -7 6 5 -3 9 0 22 6 28 8 8 8
11 0 11 -6 0 -14 -8 -17 -17z"/>
<path d="M2302 1160 c0 -19 2 -27 5 -17 2 9 2 25 0 35 -3 9 -5 1 -5 -18z"/>
<path d="M2326 1167 c2 -7 0 -26 -6 -42 -12 -31 -4 -48 10 -25 13 20 13 67 0
75 -5 3 -7 0 -4 -8z"/>
<path d="M2371 1158 c0 -16 -5 -28 -9 -28 -5 0 -9 -6 -9 -12 0 -7 -4 -22 -8
-33 -4 -11 3 -5 14 14 13 20 20 44 18 60 l-4 26 -2 -27z"/>
<path d="M2393 1137 c-1 -27 2 -36 8 -26 11 17 12 56 2 62 -5 3 -9 -13 -10
-36z"/>
<path d="M2205 1140 c3 -44 15 -49 15 -7 0 21 -4 37 -9 37 -5 0 -8 -14 -6 -30z"/>
<path d="M2252 1125 c0 -16 2 -22 5 -12 2 9 2 23 0 30 -3 6 -5 -1 -5 -18z"/>
<path d="M295 1106 c-22 -7 -61 -25 -88 -39 -40 -22 -44 -26 -25 -29 21 -3 19
-5 -12 -20 -19 -9 -48 -30 -63 -46 -17 -17 -45 -33 -65 -37 l-37 -7 30 -13
c17 -7 25 -14 19 -14 -14 -1 -26 -41 -12 -41 5 0 6 -9 3 -20 -4 -12 -1 -28 7
-37 11 -14 11 -16 -1 -9 -10 7 -12 3 -7 -13 3 -11 9 -30 12 -41 3 -11 2 -19
-3 -18 -4 2 -8 -1 -8 -7 0 -5 8 -9 18 -8 23 4 22 -9 -3 -30 -11 -9 -20 -29
-20 -46 0 -16 -6 -44 -14 -62 l-14 -34 -4 30 c-2 17 -5 -104 -6 -267 l-3 -298
238 0 238 0 18 97 c79 423 101 606 77 663 -10 23 -18 30 -32 27 -10 -3 -18 0
-18 6 0 7 -5 5 -10 -3 -9 -13 -10 -13 -11 0 0 10 -3 8 -9 -5 -7 -17 -9 -16 -9
10 -1 17 -6 37 -11 45 -9 13 -11 13 -21 0 -8 -12 -9 -9 -4 10 6 20 5 23 -6 13
-19 -19 -28 -16 -22 7 7 25 -12 26 -27 3 -8 -14 -9 -9 -5 22 6 39 6 39 -11 20
l-17 -20 8 20 c13 36 11 80 -4 80 -14 0 -21 19 -23 63 0 12 -5 22 -10 22 -5 0
-2 7 6 16 28 28 22 29 -39 10z m-161 -166 c-6 -6 -28 -13 -50 -15 -38 -5 -38
-4 -6 4 18 5 36 11 39 15 4 3 11 6 17 6 7 0 7 -3 0 -10z m-58 -306 c-4 -9 -1
-23 5 -30 10 -12 9 -13 -5 -8 -16 6 -22 35 -9 47 11 12 15 8 9 -9z"/>
<path d="M2166 1105 c-3 -8 -1 -15 4 -15 6 0 10 7 10 15 0 8 -2 15 -4 15 -2 0
-6 -7 -10 -15z"/>
<path d="M2471 1094 c0 -11 3 -14 6 -6 3 7 2 16 -1 19 -3 4 -6 -2 -5 -13z"/>
<path d="M2275 1090 c3 -5 8 -10 11 -10 2 0 4 5 4 10 0 6 -5 10 -11 10 -5 0
-7 -4 -4 -10z"/>
<path d="M2372 1080 c0 -14 2 -19 5 -12 2 6 2 18 0 25 -3 6 -5 1 -5 -13z"/>
<path d="M2188 1055 c-4 -16 -9 -39 -12 -50 -4 -11 1 -5 9 14 9 18 14 41 13
50 -2 9 -7 3 -10 -14z"/>
<path d="M2588 1058 c-3 -15 -1 -25 3 -22 5 3 9 0 9 -7 0 -7 2 -10 5 -8 2 3 1
18 -4 35 l-8 29 -5 -27z"/>
<path d="M2405 1060 c3 -5 8 -10 11 -10 2 0 4 5 4 10 0 6 -5 10 -11 10 -5 0
-7 -4 -4 -10z"/>
<path d="M2481 1044 c0 -11 3 -14 6 -6 3 7 2 16 -1 19 -3 4 -6 -2 -5 -13z"/>
<path d="M2342 1030 c0 -14 2 -19 5 -12 2 6 2 18 0 25 -3 6 -5 1 -5 -13z"/>
<path d="M2363 1016 c-7 -90 -11 -114 -17 -125 -4 -6 -1 -11 8 -11 9 0 16 6
16 13 0 27 22 87 29 82 5 -2 11 5 15 18 11 42 6 52 -13 24 -12 -19 -21 -25
-26 -17 -4 6 1 18 11 25 11 8 17 15 14 15 -32 7 -35 6 -37 -24z"/>
<path d="M2290 1017 c0 -27 29 -72 30 -47 0 13 1 13 10 0 12 -18 12 -2 0 25
-8 18 -9 18 -9 2 -1 -10 -6 -15 -12 -11 -6 3 -8 17 -5 30 4 14 2 24 -4 24 -5
0 -10 -10 -10 -23z"/>
<path d="M3705 1020 c-3 -5 -1 -10 4 -10 6 0 11 5 11 10 0 6 -2 10 -4 10 -3 0
-8 -4 -11 -10z"/>
<path d="M3306 978 c3 -5 10 -6 15 -3 13 9 11 12 -6 12 -8 0 -12 -4 -9 -9z"/>
<path d="M3368 983 c7 -3 16 -2 19 1 4 3 -2 6 -13 5 -11 0 -14 -3 -6 -6z"/>
<path d="M3565 970 c3 -5 8 -10 11 -10 2 0 4 5 4 10 0 6 -5 10 -11 10 -5 0 -7
-4 -4 -10z"/>
<path d="M2263 955 c-3 -9 -3 -18 -1 -21 3 -3 8 4 11 16 6 23 -1 27 -10 5z"/>
<path d="M2313 934 c-3 -8 0 -21 7 -27 10 -10 11 -7 5 12 -5 16 -4 21 4 17 6
-4 11 -2 11 3 0 17 -20 13 -27 -5z"/>
<path d="M3425 941 c-14 -14 -1 -28 27 -29 21 0 27 2 19 7 -8 5 -11 13 -8 18
6 9 -30 13 -38 4z"/>
<path d="M2161 924 c0 -11 3 -14 6 -6 3 7 2 16 -1 19 -3 4 -6 -2 -5 -13z"/>
<path d="M2190 873 c0 -26 -3 -34 -9 -24 -6 9 -8 4 -7 -18 3 -54 20 -39 24 22
1 31 0 57 -3 57 -3 0 -5 -17 -5 -37z"/>
<path d="M2294 876 c-3 -14 -4 -31 -1 -38 4 -8 6 -7 6 5 1 9 6 17 11 17 13 0
13 27 0 35 -5 3 -12 -5 -16 -19z"/>
<path d="M2611 882 c-17 -31 -13 -40 5 -14 9 13 14 26 11 29 -3 2 -10 -4 -16
-15z"/>
<path d="M2708 843 c5 -21 7 -23 10 -9 2 10 0 22 -6 28 -6 6 -7 0 -4 -19z"/>
<path d="M2995 840 c3 -5 8 -10 11 -10 2 0 4 5 4 10 0 6 -5 10 -11 10 -5 0 -7
-4 -4 -10z"/>
<path d="M3175 810 c-3 -5 -1 -10 4 -10 6 0 11 5 11 10 0 6 -2 10 -4 10 -3 0
-8 -4 -11 -10z"/>
<path d="M2311 764 c0 -11 3 -14 6 -6 3 7 2 16 -1 19 -3 4 -6 -2 -5 -13z"/>
<path d="M27 751 c-4 -17 -3 -21 5 -13 5 5 8 16 6 23 -3 8 -7 3 -11 -10z"/>
<path d="M3070 730 c-9 -6 -10 -10 -3 -10 6 0 15 5 18 10 8 12 4 12 -15 0z"/>
<path d="M2740 715 c0 -5 5 -17 10 -25 5 -8 10 -10 10 -5 0 6 -5 17 -10 25 -5
8 -10 11 -10 5z"/>
<path d="M11 624 c0 -11 3 -14 6 -6 3 7 2 16 -1 19 -3 4 -6 -2 -5 -13z"/>
<path d="M2761 604 c0 -11 3 -14 6 -6 3 7 2 16 -1 19 -3 4 -6 -2 -5 -13z"/>
<path d="M2801 514 c0 -11 3 -14 6 -6 3 7 2 16 -1 19 -3 4 -6 -2 -5 -13z"/>
<path d="M3150 380 c6 -11 13 -20 16 -20 2 0 0 9 -6 20 -6 11 -13 20 -16 20
-2 0 0 -9 6 -20z"/>
<path d="M2740 264 c0 -14 -3 -23 -7 -21 -5 3 -14 -2 -22 -10 -12 -13 -11 -14
7 -9 15 5 21 2 24 -11 3 -10 5 3 6 30 1 26 -1 47 -3 47 -3 0 -5 -12 -5 -26z"/>
<path d="M3564 226 c-8 -22 3 -33 18 -18 9 9 9 15 0 24 -9 9 -13 7 -18 -6z"/>
<path d="M3326 193 c-6 -14 -5 -15 5 -6 7 7 10 15 7 18 -3 3 -9 -2 -12 -12z"/>
<path d="M2700 188 c0 -6 3 -9 6 -5 16 16 36 -26 32 -68 -4 -51 7 -47 16 7 5
30 3 41 -14 58 -22 22 -40 26 -40 8z"/>
<path d="M3136 192 c-2 -4 -1 -14 4 -22 7 -11 9 -9 7 8 -1 24 -3 26 -11 14z"/>
<path d="M2700 161 c0 -6 5 -13 10 -16 6 -3 10 1 10 9 0 9 -4 16 -10 16 -5 0
-10 -4 -10 -9z"/>
<path d="M2800 129 c0 -5 5 -7 10 -4 6 3 10 8 10 11 0 2 -4 4 -10 4 -5 0 -10
-5 -10 -11z"/>
<path d="M3522 100 c0 -14 2 -19 5 -12 2 6 2 18 0 25 -3 6 -5 1 -5 -13z"/>
<path d="M3476 102 c-2 -4 -1 -14 5 -22 7 -12 9 -10 9 8 0 23 -5 28 -14 14z"/>
<path d="M3600 81 c0 -28 -3 -31 -33 -31 -40 0 -46 -5 -40 -31 5 -17 13 -20
47 -17 22 2 44 8 48 13 13 18 9 72 -7 85 -13 11 -15 8 -15 -19z"/>
<path d="M3195 61 c-3 -5 -1 -12 5 -16 5 -3 10 1 10 9 0 18 -6 21 -15 7z"/>
<path d="M2730 50 c0 -5 7 -10 16 -10 8 0 12 5 9 10 -3 6 -10 10 -16 10 -5 0
-9 -4 -9 -10z"/>
<path d="M2797 31 c-4 -17 -3 -21 5 -13 5 5 8 16 6 23 -3 8 -7 3 -11 -10z"/>
<path d="M3128 33 c6 -2 18 -2 25 0 6 3 1 5 -13 5 -14 0 -19 -2 -12 -5z"/>
<path d="M2738 13 c7 -3 16 -2 19 1 4 3 -2 6 -13 5 -11 0 -14 -3 -6 -6z"/>
</g>
</svg>
